<svg width="256" height="256" viewBox="0 0 256 256" fill="none" xmlns="http://www.w3.org/2000/svg">
	<rect width="256" height="256" fill="white"/>
	<path
		d="M222.708 106.306C218.823 97.1685 176.092 103.284 126.887 119.977L126.455 118.898C149.763 108.681 171.704 101.198 188.393 97.3844L191.846 90.1172H87.3933L86.0984 102.781H85.0913L80.847 81.555C79.9837 77.1659 76.0991 74 71.639 74H59.1219C56.0285 74 53.5107 76.5183 53.5107 79.6123C53.5107 82.7062 56.0285 85.2245 59.1219 85.2245H70.2722L71.2793 90.1892L75.6675 112.207C47.3241 125.014 29.4836 137.606 32.2892 144.153C36.2458 153.363 79.7679 147.031 129.549 129.979C131.635 129.259 133.721 128.54 135.807 127.892L136.239 128.827C116.744 138.325 98.3278 145.736 83.2928 150.341L84.5158 156.385H160.338L166.237 144.009C201.99 129.259 225.945 113.789 222.708 106.306ZM64.4452 128.899C63.2223 126.021 67.8982 121.416 76.4588 116.308L79.4801 131.49C71.0635 132.209 65.5243 131.418 64.4452 128.899ZM168.251 139.62L178.25 118.682C185.084 118.322 189.544 119.186 190.552 121.488C192.134 125.374 183.142 132.353 168.251 139.62ZM102.644 173.006C102.644 177.971 98.6155 182 93.6518 182C88.6881 182 84.6597 177.971 84.6597 173.006C84.6597 168.041 88.6881 164.012 93.6518 164.012C98.6155 164.012 102.644 168.041 102.644 173.006ZM157.964 173.006C157.964 177.971 153.935 182 148.972 182C144.008 182 139.98 177.971 139.98 173.006C139.98 168.041 144.008 164.012 148.972 164.012C153.935 164.012 157.964 168.041 157.964 173.006Z"
		fill="url(#paint0_linear_109_2274)"/>
	<defs>
		<linearGradient id="paint0_linear_109_2274" x1="88.2385" y1="180.263" x2="154.296" y2="65.8712"
			gradientUnits="userSpaceOnUse">
			<stop offset="0.15" stop-color="#F15A22"/>
			<stop offset="1" stop-color="#FDB913"/>
		</linearGradient>
	</defs>
</svg>
