<svg width="151" height="27" viewBox="0 0 151 27" fill="none" xmlns="http://www.w3.org/2000/svg">
	<path
		d="M150.376 6.74275C149.566 4.83556 140.645 6.11203 130.373 9.59604L130.283 9.37078C135.149 7.23832 139.729 5.67653 143.213 4.88062L143.934 3.36386H122.129L121.859 6.00691H121.648L120.762 1.57681C120.582 0.66076 119.771 0 118.84 0H116.227C115.581 0 115.056 0.525603 115.056 1.17135C115.056 1.81709 115.581 2.34269 116.227 2.34269H118.555L118.765 3.37889L119.681 7.97417C113.764 10.6472 110.04 13.2753 110.626 14.6418C111.452 16.5641 120.537 15.2425 130.929 11.6834C131.365 11.5333 131.8 11.3831 132.236 11.2479L132.326 11.4432C128.256 13.4254 124.412 14.9722 121.273 15.9333L121.528 17.1948H137.356L138.588 14.6118C146.051 11.5333 151.052 8.30455 150.376 6.74275ZM117.338 11.4582C117.083 10.8575 118.059 9.89638 119.846 8.83016L120.477 11.9988C118.72 12.149 117.564 11.9838 117.338 11.4582ZM139.008 13.6958L141.096 9.32573C142.522 9.25064 143.453 9.43085 143.664 9.9114C143.994 10.7223 142.117 12.179 139.008 13.6958ZM125.313 20.6638C125.313 21.7 124.472 22.5409 123.435 22.5409C122.399 22.5409 121.558 21.7 121.558 20.6638C121.558 19.6276 122.399 18.7866 123.435 18.7866C124.472 18.7866 125.313 19.6276 125.313 20.6638ZM136.861 20.6638C136.861 21.7 136.02 22.5409 134.984 22.5409C133.948 22.5409 133.107 21.7 133.107 20.6638C133.107 19.6276 133.948 18.7866 134.984 18.7866C136.02 18.7866 136.861 19.6276 136.861 20.6638Z"
		fill="url(#paint0_linear_35_21)"/>
	<path
		d="M10.456 9.17927L11.5811 10.5979L12.2292 11.3805C13.4848 12.9296 14.1125 14.5683 14.1125 16.2967C14.1125 17.9762 13.5581 19.4478 12.4494 20.7114C10.9329 22.448 8.94773 23.3163 6.49373 23.3163C4.59412 23.3163 3.03693 22.7293 1.82216 21.5553C0.607386 20.3894 0 18.8934 0 17.0671C0 14.8333 0.945728 12.9703 2.83718 11.4784C3.83998 10.6875 4.76533 10.2921 5.61322 10.2921C6.05347 10.2921 6.4122 10.4185 6.68939 10.6712C6.96659 10.924 7.10519 11.2501 7.10519 11.6496C7.10519 12.1877 6.78723 12.6524 6.15131 13.0437L5.17297 13.6429C4.61042 13.9935 4.14164 14.4827 3.76661 15.1105C3.39158 15.7382 3.20406 16.3578 3.20406 16.9693C3.20406 17.9395 3.53017 18.7385 4.1824 19.3662C4.84278 20.0021 5.67844 20.3201 6.68939 20.3201C7.80633 20.3201 8.77652 19.9002 9.59995 19.0605C10.4234 18.2289 10.8351 17.2465 10.8351 16.1133C10.8351 15.3958 10.668 14.7436 10.3337 14.1566C9.99944 13.5696 9.27792 12.6605 8.16913 11.4295C7.39461 10.5734 6.84022 9.82335 6.50595 9.17927H3.20406C2.07897 9.17927 1.51643 8.79202 1.51643 8.0175C1.51643 7.45495 1.71209 7.02285 2.10343 6.7212C2.50292 6.41139 3.06139 6.25649 3.77883 6.25649H5.87003C6.03309 4.64223 6.77092 3.30924 8.08353 2.25753C9.39613 1.19766 10.9696 0.667725 12.804 0.667725C14.1818 0.667725 15.3029 1.04683 16.1671 1.80504C17.0394 2.56326 17.4756 3.54567 17.4756 4.75229C17.4756 6.3584 16.7867 7.58947 15.4088 8.44552C14.6262 8.93469 13.3829 9.17927 11.6789 9.17927H10.456ZM8.98849 6.25649H11.9235C13.5785 6.25649 14.406 5.77547 14.406 4.81344C14.406 4.43841 14.2348 4.13675 13.8924 3.90847C13.5581 3.68019 13.1097 3.56605 12.5472 3.56605C11.6667 3.56605 10.8636 3.83917 10.138 4.38541C9.42059 4.93165 9.03741 5.55534 8.98849 6.25649Z"
		fill="white"/>
	<path
		d="M22.3428 8.70233C23.1989 8.23762 23.9041 8.00527 24.4585 8.00527C25.2411 8.00527 25.8811 8.22539 26.3785 8.66565C26.8839 9.09775 27.1367 9.65214 27.1367 10.3288C27.1367 10.7365 27.0388 11.1808 26.8432 11.6618L25.5591 14.8659H26.9655C27.9927 14.8659 28.5064 15.2287 28.5064 15.9543C28.5064 16.4516 28.3229 16.8389 27.956 17.116C27.5973 17.3932 27.0918 17.5318 26.4396 17.5318H23.9815C23.4598 17.5318 23.0195 17.3851 22.6608 17.0916C22.3102 16.7899 22.1349 16.4231 22.1349 15.991C22.1349 15.6975 22.2287 15.3224 22.4162 14.8659L23.5413 12.1021C23.6799 11.7515 23.7492 11.4865 23.7492 11.3072C23.7492 10.8425 23.4394 10.6101 22.8198 10.6101C21.9882 10.6101 21.287 11.3194 20.7163 12.738L19.3467 16.101C18.9146 17.169 18.2746 17.7031 17.4267 17.7031C17.0924 17.7031 16.8071 17.5971 16.5706 17.3851C16.3342 17.1731 16.216 16.9163 16.216 16.6147C16.216 16.3864 16.2771 16.1173 16.3994 15.8075L16.5339 15.4773L21.8536 2.35536C22.3184 1.23027 22.9543 0.667725 23.7614 0.667725C24.0957 0.667725 24.381 0.781864 24.6175 1.01014C24.862 1.23027 24.9843 1.49931 24.9843 1.81727C24.9843 2.07816 24.8783 2.46542 24.6664 2.97905L22.3428 8.70233Z"
		fill="white"/>
	<path
		d="M34.6454 8.00527C35.8276 8.00527 36.7978 8.3803 37.556 9.13036C38.3224 9.88042 38.7055 10.8343 38.7055 11.992C38.7055 12.8644 38.5058 13.7326 38.1063 14.5968C37.7068 15.4529 37.1891 16.1377 36.5532 16.6513C36.1292 16.9856 35.689 17.218 35.2324 17.3484C34.784 17.4707 34.1522 17.5318 33.3369 17.5318C32.008 17.5318 31.1112 17.3729 30.6465 17.0549C29.554 16.3048 29.0078 15.1961 29.0078 13.7286C29.0078 12.1795 29.5662 10.8384 30.6832 9.70513C31.8001 8.57189 33.1209 8.00527 34.6454 8.00527ZM34.3519 10.6101C33.7486 10.6101 33.1983 10.9077 32.701 11.5028C32.2037 12.098 31.955 12.7543 31.955 13.4717C31.955 14.4175 32.4849 14.8903 33.5448 14.8903C34.1644 14.8903 34.6414 14.6987 34.9756 14.3156C35.53 13.6878 35.8072 12.9703 35.8072 12.1632C35.8072 11.6985 35.6727 11.3235 35.4036 11.0381C35.1346 10.7528 34.784 10.6101 34.3519 10.6101Z"
		fill="white"/>
	<path
		d="M42.0074 16.578L38.8156 24.4291C38.3754 25.5135 37.7313 26.0556 36.8834 26.0556C36.5573 26.0556 36.2801 25.9456 36.0518 25.7254C35.8154 25.5135 35.6971 25.2566 35.6971 24.955C35.6971 24.7023 35.7991 24.3191 36.0029 23.8054L41.8974 9.27711C42.199 8.54335 42.7208 8.17648 43.4627 8.17648C43.9763 8.17648 44.384 8.42106 44.6856 8.91023C45.2563 8.30692 45.9534 8.00527 46.7768 8.00527C47.6329 8.00527 48.3218 8.33138 48.8436 8.98361C49.3735 9.62768 49.6385 10.4796 49.6385 11.5395C49.6385 13.5451 49.0148 15.1798 47.7674 16.4434C47.3598 16.8592 46.9399 17.1446 46.5078 17.2995C46.0757 17.4544 45.4724 17.5318 44.6979 17.5318C43.8663 17.5318 43.2915 17.4748 42.9735 17.3606C42.6637 17.2465 42.3417 16.9856 42.0074 16.578ZM43.0102 14.0832C43.2141 14.4419 43.4056 14.6743 43.585 14.7803C43.7725 14.8863 44.066 14.9392 44.4655 14.9392C45.0444 14.9392 45.4968 14.7232 45.823 14.2911C46.4833 13.4187 46.8135 12.5219 46.8135 11.6007C46.8135 10.8098 46.4385 10.4144 45.6884 10.4144C44.865 10.4144 44.2739 10.8914 43.9152 11.8452C43.8744 11.9512 43.8418 12.0409 43.8174 12.1143L43.0102 14.0832Z"
		fill="white"/>
	<path
		d="M79.4411 3.76172L71.9079 16.7125C71.3454 17.6745 70.6646 18.1555 69.8656 18.1555C69.2542 18.1555 68.7813 17.9639 68.4471 17.5808C68.1128 17.2057 67.9456 16.6676 67.9456 15.9665L68.2636 7.19814L63.8122 16.7125C63.3638 17.6745 62.7156 18.1555 61.8677 18.1555C61.2563 18.1555 60.7752 17.9599 60.4247 17.5685C60.0822 17.1853 59.911 16.6513 59.911 15.9665L59.6542 7.5161C59.6542 6.02413 59.5238 5.02133 59.2629 4.50771C59.0102 3.98592 58.5128 3.72503 57.7709 3.72503C57.1105 3.72503 56.4542 4.07561 55.802 4.77675C55.1498 5.46974 54.8237 6.17088 54.8237 6.88018C54.8237 7.47533 55.0071 7.95635 55.374 8.32323C55.7409 8.6901 56.2219 8.87354 56.817 8.87354C56.9883 8.87354 57.1513 8.86947 57.3062 8.86131C57.4611 8.85316 57.5589 8.84908 57.5997 8.84908C58.5944 8.84908 59.0917 9.2608 59.0917 10.0842C59.0917 10.6305 58.8104 11.087 58.2479 11.4539C57.6853 11.8126 56.976 11.992 56.12 11.992C54.7992 11.992 53.7067 11.5395 52.8425 10.6346C51.9783 9.72959 51.5462 8.58412 51.5462 7.19814C51.5462 5.5105 52.2311 4.00223 53.6008 2.67332C54.9786 1.33626 56.5358 0.667725 58.2723 0.667725C59.8621 0.667725 61.0117 1.13651 61.721 2.07409C62.4384 3.00351 62.7971 4.49548 62.7971 6.54999L62.8094 7.5161L62.8827 11.7719L67.2486 2.29421C67.7378 1.20989 68.4837 0.667725 69.4865 0.667725C70.0572 0.667725 70.5179 0.838934 70.8684 1.18135C71.219 1.51562 71.3943 1.96402 71.3943 2.52657L71.3821 2.66109L71.1619 11.9675L76.6651 2.48988L76.9219 2.01294C77.3703 1.23027 78.0592 0.838934 78.9887 0.838934H81.3734C82.5066 0.838934 83.0732 1.23842 83.0732 2.0374C83.0732 2.57549 82.8735 2.99943 82.474 3.30924C82.0745 3.61089 81.5201 3.76172 80.8108 3.76172H79.4411Z"
		fill="white"/>
	<path
		d="M85.3479 8.00527C86.53 8.00527 87.5002 8.3803 88.2584 9.13036C89.0248 9.88042 89.408 10.8343 89.408 11.992C89.408 12.8644 89.2082 13.7326 88.8087 14.5968C88.4092 15.4529 87.8915 16.1377 87.2556 16.6513C86.8317 16.9856 86.3914 17.218 85.9349 17.3484C85.4865 17.4707 84.8546 17.5318 84.0393 17.5318C82.7104 17.5318 81.8136 17.3729 81.3489 17.0549C80.2564 16.3048 79.7102 15.1961 79.7102 13.7286C79.7102 12.1795 80.2686 10.8384 81.3856 9.70513C82.5025 8.57189 83.8233 8.00527 85.3479 8.00527ZM85.0544 10.6101C84.451 10.6101 83.9007 10.9077 83.4034 11.5028C82.9061 12.098 82.6574 12.7543 82.6574 13.4717C82.6574 14.4175 83.1874 14.8903 84.2472 14.8903C84.8668 14.8903 85.3438 14.6987 85.678 14.3156C86.2324 13.6878 86.5096 12.9703 86.5096 12.1632C86.5096 11.6985 86.3751 11.3235 86.1061 11.0381C85.837 10.7528 85.4865 10.6101 85.0544 10.6101Z"
		fill="white"/>
	<path
		d="M98.9835 12.9826L101.857 9.24042L102.09 8.94692C102.571 8.31915 103.101 8.00527 103.679 8.00527C104.046 8.00527 104.348 8.12756 104.584 8.37214C104.821 8.60858 104.939 8.91023 104.939 9.27711C104.939 9.66029 104.69 10.1658 104.193 10.7935L99.6071 16.5657C99.0038 17.3239 98.3801 17.7031 97.7361 17.7031C97.2061 17.7031 96.7577 17.5033 96.3909 17.1038C96.024 16.7043 95.8405 16.2152 95.8405 15.6363C95.8405 15.4896 95.8528 15.3387 95.8772 15.1838L96.2808 12.9826L93.786 16.5657C93.2643 17.3239 92.6854 17.7031 92.0495 17.7031C91.5032 17.7031 91.0548 17.4911 90.7043 17.0671C90.3537 16.6432 90.1784 16.0969 90.1784 15.4284C90.1784 15.3306 90.1825 15.2491 90.1906 15.1838L90.5331 10.0598C90.582 9.3994 90.7532 8.89393 91.0467 8.54335C91.3483 8.18463 91.756 8.00527 92.2696 8.00527C93.036 8.00527 93.4192 8.42514 93.4192 9.26488C93.4192 9.40348 93.411 9.55838 93.3947 9.72959L93.0523 13.1538L95.7794 9.25265C96.3582 8.42106 97.0309 8.00527 97.7972 8.00527C98.2701 8.00527 98.6451 8.13979 98.9223 8.40883C99.1995 8.67788 99.3381 9.04068 99.3381 9.49723C99.3381 9.68475 99.334 9.82335 99.3259 9.91303L98.9835 12.9826Z"
		fill="white"/>
	<defs>
		<linearGradient id="paint0_linear_35_21" x1="122.305" y1="22.1784" x2="136.091" y2="-1.699"
			gradientUnits="userSpaceOnUse">
			<stop offset="0.15" stop-color="#F15A22"/>
			<stop offset="1" stop-color="#FDB913"/>
		</linearGradient>
	</defs>
</svg>
