<svg width="24" height="24" viewBox="0 0 24 24" fill="none" xmlns="http://www.w3.org/2000/svg">
	<path fill-rule="evenodd" clip-rule="evenodd"
		d="M7.29289 12.2929L19.2929 0.292893C19.6834 -0.0976311 20.3166 -0.0976311 20.7071 0.292893L23.7071 3.29289C24.0976 3.68342 24.0976 4.31658 23.7071 4.70711L11.7071 16.7071C11.5196 16.8946 11.2652 17 11 17H8C7.44772 17 7 16.5523 7 16V13C7 12.7348 7.10536 12.4804 7.29289 12.2929ZM21 20V12C21 11.4477 21.4477 11 22 11C22.5523 11 23 11.4477 23 12V20C23 21.6569 21.6569 23 20 23H4C2.34315 23 1 21.6569 1 20V4C1 2.34315 2.34315 1 4 1H12C12.5523 1 13 1.44772 13 2C13 2.55228 12.5523 3 12 3H4C3.44772 3 3 3.44772 3 4V20C3 20.5523 3.44772 21 4 21H20C20.5523 21 21 20.5523 21 20ZM18.5858 7L10.5858 15H9V13.4142L17 5.41421L18.5858 7ZM18.4142 4L20 5.58579L21.5858 4L20 2.41421L18.4142 4Z"
		fill="white"/>
</svg>
