<svg width="24" height="24" viewBox="0 0 24 24" fill="none" xmlns="http://www.w3.org/2000/svg">
	<path fill-rule="evenodd" clip-rule="evenodd"
		d="M11.0821 3.79289C11.2823 3.99309 11.7294 4.51638 12 4.82246C12.2706 4.51638 12.7177 3.99309 12.9179 3.79289C14.07 2.64083 15.494 2 17.5 2C21.6984 2 24 4.95919 24 9C24 11.7257 22.4499 13.8457 19.3868 16.371C19.1162 16.594 18.8409 16.8156 18.4792 17.1027C18.3731 17.1869 18.2584 17.2777 18.0429 17.4483C17.8692 17.5859 17.7449 17.6847 17.6247 17.7809L12 22.2806L6.37531 17.7809C6.18729 17.6305 5.45355 17.0493 5.51399 17.0973C5.14974 16.8081 4.87131 16.5839 4.598 16.3583C1.54831 13.8411 0 11.7194 0 9C0 4.95919 2.30159 2 6.5 2C8.50597 2 9.93005 2.64083 11.0821 3.79289Z"
		fill="#FF671C"/>
</svg>
