<svg width="24" height="24" viewBox="0 0 24 24" fill="none" xmlns="http://www.w3.org/2000/svg">
	<path
		d="M7 15L6.0213 15.2053C6.11844 15.6684 6.52684 16 7 16V15ZM20.5 11.5L21.4487 11.8162L21.4637 11.7712L21.4744 11.7249L20.5 11.5ZM22 5L22.9744 5.22486L23.2571 4H22V5ZM4.90234 5L3.92195 5.19723L3.92364 5.2053L4.90234 5ZM0 1C0 2 3.8147e-06 2 1.14366e-05 2C1.90586e-05 2 3.04878e-05 2 4.57168e-05 2C6.09457e-05 2 7.99745e-05 2 0.000102796 2C0.000125617 2 0.00015223 2 0.000182629 2C0.000213027 2 0.00024721 2 0.000285171 2C0.000323132 2 0.00036487 2 0.000410378 2C0.000455886 2 0.000505164 2 0.000558205 2C0.000611246 2 0.000668049 2 0.000728607 2C0.000789165 2 0.000853479 2 0.00092154 2C0.000989601 2 0.00106141 2 0.00113696 2C0.00121251 2 0.0012918 2 0.00137482 2C0.00145784 2 0.00154459 2 0.00163507 2C0.00172555 2 0.00181976 2 0.00191768 2C0.00201561 2 0.00211725 2 0.0022226 2C0.00232795 2 0.00243701 2 0.00254977 2C0.00266254 2 0.00277901 2 0.00289917 2C0.00301933 2 0.00314319 2 0.00327074 2C0.00339828 2 0.00352952 2 0.00366443 2C0.00379935 2 0.00393794 2 0.00408021 2C0.00422248 2 0.00436842 2 0.00451803 2C0.00466764 2 0.00482091 2 0.00497784 2C0.00513478 2 0.00529537 2 0.00545961 2C0.00562385 2 0.00579174 2 0.00596327 2C0.00613481 2 0.00630999 2 0.0064888 2C0.00666761 2 0.00685006 2 0.00703614 2C0.00722222 2 0.00741193 2 0.00760525 2C0.00779858 2 0.00799553 2 0.00819609 2C0.00839666 2 0.00860083 2 0.00880861 2C0.00901639 2 0.00922778 2 0.00944277 2C0.00965776 2 0.00987634 2 0.0100985 2C0.0103207 2 0.0105465 2 0.0107758 2C0.0110052 2 0.0112381 2 0.0114746 2C0.0117111 2 0.0119512 2 0.0121949 2C0.0124385 2 0.0126857 2 0.0129365 2C0.0131873 2 0.0134417 2 0.0136996 2C0.0139575 2 0.0142189 2 0.0144839 2C0.0147489 2 0.0150175 2 0.0152896 2C0.0155617 2 0.0158373 2 0.0161164 2C0.0163956 2 0.0166783 2 0.0169645 2C0.0172507 2 0.0175405 2 0.0178337 2C0.018127 2 0.0184237 2 0.018724 2C0.0190243 2 0.0193281 2 0.0196354 2C0.0199427 2 0.0202535 2 0.0205678 2C0.020882 2 0.0211998 2 0.0215211 2C0.0218424 2 0.0221671 2 0.0224954 2C0.0228236 2 0.0231553 2 0.0234905 2C0.0238257 2 0.0241643 2 0.0245065 2C0.0248486 2 0.0251942 2 0.0255432 2C0.0258923 2 0.0262448 2 0.0266007 2C0.0269567 2 0.0273161 2 0.0276789 2C0.0280418 2 0.028408 2 0.0287778 2C0.0291475 2 0.0295206 2 0.0298972 2C0.0302738 2 0.0306538 2 0.0310372 2C0.0314207 2 0.0318075 2 0.0321978 2C0.032588 2 0.0329817 2 0.0333788 2C0.0337759 2 0.0341763 2 0.0345802 2C0.0349841 2 0.0353914 2 0.0358021 2C0.0362127 2 0.0366268 2 0.0370442 2C0.0374617 2 0.0378825 2 0.0383067 2C0.0387309 2 0.0391585 2 0.0395894 2C0.0400203 2 0.0404547 2 0.0408923 2C0.04133 2 0.041771 2 0.0422154 2C0.0426598 2 0.0431075 2 0.0435586 2C0.0440097 2 0.0444641 2 0.0449219 2C0.0453796 2 0.0458407 2 0.0463052 2C0.0467696 2 0.0472374 2 0.0477085 2C0.0481795 2 0.0486539 2 0.0491317 2C0.0496094 2 0.0500904 2 0.0505748 2C0.0510591 2 0.0515468 2 0.0520377 2C0.0525287 2 0.053023 2 0.0535205 2C0.0540181 2 0.0545189 2 0.055023 2C0.0555272 2 0.0560346 2 0.0565453 2C0.057056 2 0.0575699 2 0.0580872 2C0.0586044 2 0.0591249 2 0.0596487 2C0.0601725 2 0.0606995 2 0.0612298 2C0.0617601 2 0.0622936 2 0.0628304 2C0.0633672 2 0.0639073 2 0.0644506 2C0.0649939 2 0.0655404 2 0.0660902 2C0.0666399 2 0.0671929 2 0.0677492 2C0.0683054 2 0.0688648 2 0.0694275 2C0.0699902 2 0.070556 2 0.0711251 2C0.0716942 2 0.0722665 2 0.0728421 2C0.0734176 2 0.0739963 2 0.0745782 2C0.0751601 2 0.0757452 2 0.0763335 2C0.0769218 2 0.0775133 2 0.078108 2C0.0787026 2 0.0793005 2 0.0799015 2C0.0805025 2 0.0811067 2 0.0817141 2C0.0823215 2 0.082932 2 0.0835457 2C0.0841594 2 0.0847762 2 0.0853962 2C0.0860162 2 0.0866394 2 0.0872657 2C0.087892 2 0.0885214 2 0.089154 2C0.0897866 2 0.0904223 2 0.0910611 2C0.0917 2 0.0923419 2 0.092987 2C0.0936321 2 0.0942803 2 0.0949317 2C0.095583 2 0.0962374 2 0.096895 2C0.0975525 2 0.0982132 2 0.098877 2C0.0995407 2 0.100208 2 0.100878 2C0.101547 2 0.102221 2 0.102897 2C0.103573 2 0.104252 2 0.104934 2C0.105617 2 0.106302 2 0.10699 2C0.107679 2 0.10837 2 0.109065 2C0.109759 2 0.110457 2 0.111158 2C0.111858 2 0.112562 2 0.113269 2C0.113976 2 0.114686 2 0.115398 2C0.116111 2 0.116827 2 0.117546 2C0.118265 2 0.118987 2 0.119712 2C0.120437 2 0.121165 2 0.121896 2C0.122627 2 0.123361 2 0.124098 2C0.124835 2 0.125575 2 0.126319 2C0.127062 2 0.127808 2 0.128557 2C0.129306 2 0.130058 2 0.130813 2C0.131568 2 0.132326 2 0.133087 2C0.133848 2 0.134612 2 0.135379 2C0.136146 2 0.136916 2 0.137689 2C0.138462 2 0.139238 2 0.140017 2C0.140796 2 0.141577 2 0.142362 2C0.143147 2 0.143935 2 0.144725 2C0.145516 2 0.146309 2 0.147106 2C0.147903 2 0.148702 2 0.149504 2C0.150307 2 0.151112 2 0.15192 2C0.152729 2 0.15354 2 0.154354 2C0.155168 2 0.155985 2 0.156805 2C0.157625 2 0.158447 2 0.159273 2C0.160099 2 0.160927 2 0.161759 2C0.16259 2 0.163425 2 0.164262 2C0.165099 2 0.165939 2 0.166782 2C0.167625 2 0.168471 2 0.16932 2C0.170169 2 0.171021 2 0.171875 2C0.172729 2 0.173587 2 0.174447 2C0.175307 2 0.17617 2 0.177036 2C0.177902 2 0.178771 2 0.179642 2C0.180514 2 0.181388 2 0.182266 2C0.183143 2 0.184023 2 0.184906 2C0.185789 2 0.186675 2 0.187563 2C0.188452 2 0.189343 2 0.190237 2C0.191132 2 0.192029 2 0.192928 2C0.193828 2 0.194731 2 0.195636 2C0.196541 2 0.19745 2 0.198361 2C0.199272 2 0.200185 2 0.201102 2C0.202018 2 0.202938 2 0.20386 2C0.204782 2 0.205707 2 0.206634 2C0.207562 2 0.208492 2 0.209426 2C0.210359 2 0.211295 2 0.212233 2C0.213172 2 0.214113 2 0.215057 2C0.216002 2 0.216948 2 0.217898 2C0.218848 2 0.2198 2 0.220755 2C0.22171 2 0.222668 2 0.223628 2C0.224589 2 0.225552 2 0.226518 2C0.227484 2 0.228453 2 0.229424 2C0.230396 2 0.23137 2 0.232346 2C0.233323 2 0.234303 2 0.235285 2C0.236267 2 0.237252 2 0.238239 2C0.239227 2 0.240217 2 0.24121 2C0.242203 2 0.243198 2 0.244197 2C0.245195 2 0.246196 2 0.247199 2C0.248203 2 0.249209 2 0.250218 2C0.251227 2 0.252238 2 0.253252 2C0.254267 2 0.255283 2 0.256303 2C0.257322 2 0.258344 2 0.259369 2C0.260394 2 0.261421 2 0.262451 2C0.263481 2 0.264514 2 0.265549 2C0.266584 2 0.267622 2 0.268662 2C0.269703 2 0.270746 2 0.271791 2C0.272837 2 0.273885 2 0.274936 2C0.275987 2 0.27704 2 0.278096 2C0.279152 2 0.280211 2 0.281272 2C0.282333 2 0.283397 2 0.284463 2C0.28553 2 0.286599 2 0.28767 2C0.288742 2 0.289816 2 0.290892 2C0.291969 2 0.293048 2 0.29413 2C0.295211 2 0.296295 2 0.297382 2C0.298469 2 0.299558 2 0.30065 2C0.301742 2 0.302836 2 0.303933 2C0.30503 2 0.30613 2 0.307231 2C0.308333 2 0.309438 2 0.310545 2C0.311652 2 0.312761 2 0.313873 2C0.314985 2 0.3161 2 0.317217 2C0.318334 2 0.319453 2 0.320575 2C0.321697 2 0.322822 2 0.323949 2C0.325075 2 0.326205 2 0.327337 2C0.328469 2 0.329603 2 0.33074 2C0.331877 2 0.333016 2 0.334158 2C0.3353 2 0.336444 2 0.33759 2C0.338737 2 0.339886 2 0.341038 2C0.342189 2 0.343343 2 0.3445 2C0.345656 2 0.346815 2 0.347976 2C0.349138 2 0.350301 2 0.351468 2C0.352634 2 0.353802 2 0.354973 2C0.356144 2 0.357318 2 0.358494 2C0.359669 2 0.360848 2 0.362028 2C0.363209 2 0.364392 2 0.365577 2C0.366763 2 0.36795 2 0.369141 2C0.370331 2 0.371523 2 0.372718 2C0.373913 2 0.375111 2 0.37631 2C0.37751 2 0.378712 2 0.379916 2C0.381121 2 0.382328 2 0.383537 2C0.384746 2 0.385957 2 0.387171 2C0.388385 2 0.389601 2 0.39082 2C0.392038 2 0.393259 2 0.394482 2C0.395706 2 0.396931 2 0.398159 2C0.399387 2 0.400617 2 0.40185 2C0.403082 2 0.404317 2 0.405554 2C0.406791 2 0.408031 2 0.409272 2C0.410514 2 0.411758 2 0.413004 2C0.414251 2 0.415499 2 0.41675 2C0.418001 2 0.419254 2 0.42051 2C0.421765 2 0.423023 2 0.424283 2C0.425543 2 0.426805 2 0.42807 2C0.429335 2 0.430601 2 0.431871 2C0.43314 2 0.434411 2 0.435685 2C0.436958 2 0.438234 2 0.439512 2C0.44079 2 0.442071 2 0.443353 2C0.444636 2 0.445921 2 0.447208 2C0.448495 2 0.449784 2 0.451075 2C0.452367 2 0.453661 2 0.454956 2C0.456252 2 0.457551 2 0.458851 2C0.460151 2 0.461454 2 0.462758 2C0.464063 2 0.46537 2 0.466679 2C0.467988 2 0.4693 2 0.470613 2C0.471927 2 0.473242 2 0.47456 2C0.475878 2 0.477198 2 0.47852 2C0.479843 2 0.481167 2 0.482493 2C0.48382 2 0.485149 2 0.48648 2C0.48781 2 0.489143 2 0.490479 2C0.491814 2 0.493151 2 0.49449 2C0.49583 2 0.497171 2 0.498515 2C0.499859 2 0.501205 2 0.502553 2C0.5039 2 0.505251 2 0.506603 2C0.507955 2 0.509309 2 0.510666 2C0.512022 2 0.513381 2 0.514741 2C0.516102 2 0.517465 2 0.518829 2C0.520194 2 0.521561 2 0.52293 2C0.524299 2 0.52567 2 0.527043 2C0.528417 2 0.529792 2 0.531169 2C0.532546 2 0.533926 2 0.535307 2C0.536689 2 0.538072 2 0.539458 2C0.540843 2 0.542231 2 0.543621 2C0.54501 2 0.546402 2 0.547796 2C0.54919 2 0.550585 2 0.551983 2C0.553381 2 0.554781 2 0.556183 2C0.557585 2 0.558989 2 0.560395 2C0.561801 2 0.563209 2 0.564619 2C0.566029 2 0.56744 2 0.568854 2C0.570268 2 0.571684 2 0.573102 2C0.57452 2 0.57594 2 0.577362 2C0.578784 2 0.580208 2 0.581634 2C0.58306 2 0.584488 2 0.585918 2C0.587348 2 0.58878 2 0.590214 2C0.591648 2 0.593083 2 0.594521 2C0.595959 2 0.597399 2 0.59884 2C0.600282 2 0.601726 2 0.603171 2C0.604617 2 0.606064 2 0.607514 2C0.608963 2 0.610415 2 0.611868 2C0.613321 2 0.614777 2 0.616234 2C0.617691 2 0.61915 2 0.620611 2C0.622072 2 0.623535 2 0.625 2C0.626465 2 0.627932 2 0.6294 2C0.630869 2 0.632339 2 0.633812 2C0.635284 2 0.636759 2 0.638235 2C0.639711 2 0.641189 2 0.642669 2C0.644149 2 0.645631 2 0.647115 2C0.648599 2 0.650084 2 0.651572 2C0.653059 2 0.654548 2 0.65604 2C0.657531 2 0.659024 2 0.660519 2C0.662014 2 0.66351 2 0.665009 2C0.666507 2 0.668008 2 0.66951 2C0.671012 2 0.672516 2 0.674022 2C0.675528 2 0.677036 2 0.678545 2C0.680055 2 0.681566 2 0.68308 2C0.684593 2 0.686108 2 0.687625 2C0.689141 2 0.69066 2 0.69218 2C0.693701 2 0.695223 2 0.696747 2C0.698271 2 0.699797 2 0.701324 2C0.702852 2 0.704381 2 0.705912 2C0.707443 2 0.708976 2 0.710511 2C0.712045 2 0.713582 2 0.71512 2C0.716658 2 0.718198 2 0.71974 2C0.721281 2 0.722825 2 0.72437 2C0.725915 2 0.727462 2 0.729011 2C0.730559 2 0.73211 2 0.733662 2C0.735214 2 0.736768 2 0.738323 2C0.739879 2 0.741436 2 0.742995 2C0.744554 2 0.746115 2 0.747677 2C0.749239 2 0.750804 2 0.752369 2C0.753935 2 0.755503 2 0.757072 2C0.758641 2 0.760212 2 0.761785 2C0.763357 2 0.764931 2 0.766507 2C0.768083 2 0.769661 2 0.77124 2C0.77282 2 0.7744 2 0.775983 2C0.777566 2 0.77915 2 0.780736 2C0.782322 2 0.783909 2 0.785499 2C0.787088 2 0.788679 2 0.790271 2C0.791864 2 0.793458 2 0.795054 2C0.79665 2 0.798247 2 0.799846 2C0.801445 2 0.803046 2 0.804648 2C0.80625 2 0.807854 2 0.80946 2C0.811065 2 0.812672 2 0.814281 2C0.81589 2 0.8175 2 0.819112 2C0.820724 2 0.822337 2 0.823953 2C0.825568 2 0.827184 2 0.828803 2C0.830421 2 0.832041 2 0.833662 2C0.835284 2 0.836907 2 0.838531 2C0.840156 2 0.841782 2 0.843409 2C0.845037 2 0.846666 2 0.848297 2C0.849928 2 0.85156 2 0.853194 2C0.854828 2 0.856463 2 0.8581 2C0.859737 2 0.861376 2 0.863016 2C0.864656 2 0.866297 2 0.86794 2C0.869583 2 0.871228 2 0.872874 2C0.87452 2 0.876168 2 0.877817 2C0.879466 2 0.881117 2 0.882769 2C0.884421 2 0.886075 2 0.88773 2C0.889385 2 0.891041 2 0.892699 2C0.894357 2 0.896017 2 0.897678 2C0.899339 2 0.901002 2 0.902666 2C0.90433 2 0.905995 2 0.907662 2C0.909329 2 0.910997 2 0.912667 2C0.914337 2 0.916008 2 0.917681 2C0.919354 2 0.921028 2 0.922703 2C0.924379 2 0.926056 2 0.927734 2C0.929413 2 0.931093 2 0.932774 2C0.934455 2 0.936138 2 0.937822 2C0.939506 2 0.941192 2 0.942879 2C0.944566 2 0.946254 2 0.947944 2C0.949634 2 0.951325 2 0.953018 2C0.95471 2 0.956404 2 0.9581 2C0.959795 2 0.961492 2 0.96319 2C0.964888 2 0.966588 2 0.968288 2C0.969989 2 0.971692 2 0.973395 2C0.975099 2 0.976804 2 0.97851 2C0.980216 2 0.981924 2 0.983633 2C0.985342 2 0.987053 2 0.988764 2C0.990476 2 0.992189 2 0.993903 2C0.995618 2 0.997334 2 0.999051 2C1.00077 2 1.00249 2 1.00421 2C1.00593 2 1.00765 2 1.00937 2C1.01109 2 1.01281 2 1.01454 2C1.01626 2 1.01799 2 1.01972 2C1.02145 2 1.02317 2 1.02491 2C1.02664 2 1.02837 2 1.0301 2C1.03183 2 1.03357 2 1.0353 2C1.03704 2 1.03877 2 1.04051 2C1.04225 2 1.04399 2 1.04573 2C1.04747 2 1.04921 2 1.05095 2C1.0527 2 1.05444 2 1.05619 2C1.05793 2 1.05968 2 1.06142 2C1.06317 2 1.06492 2 1.06667 2C1.06842 2 1.07017 2 1.07193 2C1.07368 2 1.07543 2 1.07719 2C1.07894 2 1.0807 2 1.08246 2C1.08422 2 1.08597 2 1.08773 2C1.08949 2 1.09126 2 1.09302 2C1.09478 2 1.09654 2 1.09831 2C1.10007 2 1.10184 2 1.10361 2C1.10537 2 1.10714 2 1.10891 2C1.11068 2 1.11245 2 1.11422 2C1.11599 2 1.11777 2 1.11954 2C1.12132 2 1.12309 2 1.12487 2C1.12664 2 1.12842 2 1.1302 2C1.13198 2 1.13376 2 1.13554 2C1.13732 2 1.1391 2 1.14089 2C1.14267 2 1.14445 2 1.14624 2C1.14802 2 1.14981 2 1.1516 2C1.15339 2 1.15518 2 1.15697 2C1.15876 2 1.16055 2 1.16234 2C1.16413 2 1.16592 2 1.16772 2C1.16951 2 1.17131 2 1.1731 2C1.1749 2 1.1767 2 1.1785 2C1.1803 2 1.1821 2 1.1839 2C1.1857 2 1.1875 2 1.1893 2C1.1911 2 1.19291 2 1.19471 2C1.19652 2 1.19832 2 1.20013 2C1.20194 2 1.20375 2 1.20556 2C1.20737 2 1.20918 2 1.21099 2C1.2128 2 1.21461 2 1.21642 2C1.21824 2 1.22005 2 1.22187 2C1.22368 2 1.2255 2 1.22732 2C1.22913 2 1.23095 2 1.23277 2C1.23459 2 1.23641 2 1.23823 2C1.24005 2 1.24188 2 1.2437 2C1.24552 2 1.24735 2 1.24917 2C1.251 2 1.25282 2 1.25465 2C1.25648 2 1.25831 2 1.26013 2C1.26196 2 1.26379 2 1.26562 2C1.26746 2 1.26929 2 1.27112 2C1.27295 2 1.27479 2 1.27662 2C1.27846 2 1.28029 2 1.28213 2C1.28397 2 1.2858 2 1.28764 2C1.28948 2 1.29132 2 1.29316 2C1.295 2 1.29684 2 1.29869 2C1.30053 2 1.30237 2 1.30421 2C1.30606 2 1.3079 2 1.30975 2C1.3116 2 1.31344 2 1.31529 2C1.31714 2 1.31899 2 1.32084 2C1.32268 2 1.32453 2 1.32639 2C1.32824 2 1.33009 2 1.33194 2C1.33379 2 1.33565 2 1.3375 2C1.33936 2 1.34121 2 1.34307 2C1.34493 2 1.34678 2 1.34864 2C1.3505 2 1.35236 2 1.35422 2C1.35608 2 1.35794 2 1.3598 2C1.36166 2 1.36352 2 1.36539 2C1.36725 2 1.36911 2 1.37098 2C1.37284 2 1.37471 2 1.37657 2C1.37844 2 1.38031 2 1.38217 2C1.38404 2 1.38591 2 1.38778 2C1.38965 2 1.39152 2 1.39339 2C1.39526 2 1.39713 2 1.39901 2C1.40088 2 1.40275 2 1.40463 2C1.4065 2 1.40837 2 1.41025 2C1.41213 2 1.414 2 1.41588 2C1.41776 2 1.41963 2 1.42151 2C1.42339 2 1.42527 2 1.42715 2C1.42903 2 1.43091 2 1.43279 2C1.43468 2 1.43656 2 1.43844 2C1.44032 2 1.44221 2 1.44409 2C1.44598 2 1.44786 2 1.44975 2C1.45163 2 1.45352 2 1.45541 2C1.45729 2 1.45918 2 1.46107 2C1.46296 2 1.46485 2 1.46674 2C1.46863 2 1.47052 2 1.47241 2C1.4743 2 1.47619 2 1.47809 2C1.47998 2 1.48187 2 1.48377 2C1.48566 2 1.48756 2 1.48945 2C1.49135 2 1.49324 2 1.49514 2C1.49704 2 1.49893 2 1.50083 2C1.50273 2 1.50463 2 1.50653 2C1.50843 2 1.51033 2 1.51223 2C1.51413 2 1.51603 2 1.51793 2C1.51983 2 1.52174 2 1.52364 2C1.52554 2 1.52745 2 1.52935 2C1.53125 2 1.53316 2 1.53506 2C1.53697 2 1.53888 2 1.54078 2C1.54269 2 1.5446 2 1.5465 2C1.54841 2 1.55032 2 1.55223 2C1.55414 2 1.55605 2 1.55796 2C1.55987 2 1.56178 2 1.56369 2C1.5656 2 1.56751 2 1.56943 2C1.57134 2 1.57325 2 1.57516 2C1.57708 2 1.57899 2 1.58091 2C1.58282 2 1.58474 2 1.58665 2C1.58857 2 1.59048 2 1.5924 2C1.59432 2 1.59623 2 1.59815 2C1.60007 2 1.60199 2 1.60391 2C1.60582 2 1.60774 2 1.60966 2C1.61158 2 1.6135 2 1.61542 2C1.61734 2 1.61927 2 1.62119 2C1.62311 2 1.62503 2 1.62695 2C1.62888 2 1.6308 2 1.63272 2C1.63465 2 1.63657 2 1.63849 2C1.64042 2 1.64234 2 1.64427 2C1.64619 2 1.64812 2 1.65005 2C1.65197 2 1.6539 2 1.65583 2C1.65775 2 1.65968 2 1.66161 2C1.66354 2 1.66547 2 1.6674 2C1.66932 2 1.67125 2 1.67318 2C1.67511 2 1.67704 2 1.67897 2C1.6809 2 1.68284 2 1.68477 2C1.6867 2 1.68863 2 1.69056 2C1.69249 2 1.69443 2 1.69636 2C1.69829 2 1.70023 2 1.70216 2C1.70409 2 1.70603 2 1.70796 2C1.7099 2 1.71183 2 1.71377 2C1.7157 2 1.71764 2 1.71957 2C1.72151 2 1.72345 2 1.72538 2C1.72732 2 1.72926 2 1.73119 2C1.73313 2 1.73507 2 1.73701 2C1.73895 2 1.74088 2 1.74282 2C1.74476 2 1.7467 2 1.74864 2C1.75058 2 1.75252 2 1.75446 2C1.7564 2 1.75834 2 1.76028 2C1.76222 2 1.76416 2 1.7661 2C1.76804 2 1.76998 2 1.77193 2C1.77387 2 1.77581 2 1.77775 2C1.77969 2 1.78164 2 1.78358 2C1.78552 2 1.78747 2 1.78941 2C1.79135 2 1.7933 2 1.79524 2C1.79719 2 1.79913 2 1.80107 2C1.80302 2 1.80496 2 1.80691 2C1.80885 2 1.8108 2 1.81274 2C1.81469 2 1.81664 2 1.81858 2C1.82053 2 1.82247 2 1.82442 2C1.82637 2 1.82831 2 1.83026 2C1.83221 2 1.83415 2 1.8361 2C1.83805 2 1.84 2 1.84194 2C1.84389 2 1.84584 2 1.84779 2C1.84974 2 1.85168 2 1.85363 2C1.85558 2 1.85753 2 1.85948 2C1.86143 2 1.86338 2 1.86533 2C1.86727 2 1.86922 2 1.87117 2C1.87312 2 1.87507 2 1.87702 2C1.87897 2 1.88092 2 1.88287 2C1.88482 2 1.88677 2 1.88872 2C1.89067 2 1.89262 2 1.89457 2C1.89653 2 1.89848 2 1.90043 2C1.90238 2 1.90433 2 1.90628 2C1.90823 2 1.91018 2 1.91213 2C1.91409 2 1.91604 2 1.91799 2C1.91994 2 1.92189 2 1.92384 2C1.9258 2 1.92775 2 1.9297 2C1.93165 2 1.9336 2 1.93556 2C1.93751 2 1.93946 2 1.94141 2C1.94337 2 1.94532 2 1.94727 2C1.94922 2 1.95118 2 1.95313 2C1.95508 2 1.95703 2 1.95899 2C1.96094 2 1.96289 2 1.96485 2C1.9668 2 1.96875 2 1.9707 2C1.97266 2 1.97461 2 1.97656 2C1.97852 2 1.98047 2 1.98242 2C1.98438 2 1.98633 2 1.98828 2C1.99023 2 1.99219 2 1.99414 2C1.99609 2 1.99805 2 2 2V0C1.99805 0 1.99609 0 1.99414 0C1.99219 0 1.99023 0 1.98828 0C1.98633 0 1.98438 0 1.98242 0C1.98047 0 1.97852 0 1.97656 0C1.97461 0 1.97266 0 1.9707 0C1.96875 0 1.9668 0 1.96485 0C1.96289 0 1.96094 0 1.95899 0C1.95703 0 1.95508 0 1.95313 0C1.95118 0 1.94922 0 1.94727 0C1.94532 0 1.94337 0 1.94141 0C1.93946 0 1.93751 0 1.93556 0C1.9336 0 1.93165 0 1.9297 0C1.92775 0 1.9258 0 1.92384 0C1.92189 0 1.91994 0 1.91799 0C1.91604 0 1.91409 0 1.91213 0C1.91018 0 1.90823 0 1.90628 0C1.90433 0 1.90238 0 1.90043 0C1.89848 0 1.89653 0 1.89457 0C1.89262 0 1.89067 0 1.88872 0C1.88677 0 1.88482 0 1.88287 0C1.88092 0 1.87897 0 1.87702 0C1.87507 0 1.87312 0 1.87117 0C1.86922 0 1.86727 0 1.86533 0C1.86338 0 1.86143 0 1.85948 0C1.85753 0 1.85558 0 1.85363 0C1.85168 0 1.84974 0 1.84779 0C1.84584 0 1.84389 0 1.84194 0C1.84 0 1.83805 0 1.8361 0C1.83415 0 1.83221 0 1.83026 0C1.82831 0 1.82637 0 1.82442 0C1.82247 0 1.82053 0 1.81858 0C1.81664 0 1.81469 0 1.81274 0C1.8108 0 1.80885 0 1.80691 0C1.80496 0 1.80302 0 1.80107 0C1.79913 0 1.79719 0 1.79524 0C1.7933 0 1.79135 0 1.78941 0C1.78747 0 1.78552 0 1.78358 0C1.78164 0 1.77969 0 1.77775 0C1.77581 0 1.77387 0 1.77193 0C1.76998 0 1.76804 0 1.7661 0C1.76416 0 1.76222 0 1.76028 0C1.75834 0 1.7564 0 1.75446 0C1.75252 0 1.75058 0 1.74864 0C1.7467 0 1.74476 0 1.74282 0C1.74088 0 1.73895 0 1.73701 0C1.73507 0 1.73313 0 1.73119 0C1.72926 0 1.72732 0 1.72538 0C1.72345 0 1.72151 0 1.71957 0C1.71764 0 1.7157 0 1.71377 0C1.71183 0 1.7099 0 1.70796 0C1.70603 0 1.70409 0 1.70216 0C1.70023 0 1.69829 0 1.69636 0C1.69443 0 1.69249 0 1.69056 0C1.68863 0 1.6867 0 1.68477 0C1.68284 0 1.6809 0 1.67897 0C1.67704 0 1.67511 0 1.67318 0C1.67125 0 1.66932 0 1.6674 0C1.66547 0 1.66354 0 1.66161 0C1.65968 0 1.65775 0 1.65583 0C1.6539 0 1.65197 0 1.65005 0C1.64812 0 1.64619 0 1.64427 0C1.64234 0 1.64042 0 1.63849 0C1.63657 0 1.63465 0 1.63272 0C1.6308 0 1.62888 0 1.62695 0C1.62503 0 1.62311 0 1.62119 0C1.61927 0 1.61734 0 1.61542 0C1.6135 0 1.61158 0 1.60966 0C1.60774 0 1.60582 0 1.60391 0C1.60199 0 1.60007 0 1.59815 0C1.59623 0 1.59432 0 1.5924 0C1.59048 0 1.58857 0 1.58665 0C1.58474 0 1.58282 0 1.58091 0C1.57899 0 1.57708 0 1.57516 0C1.57325 0 1.57134 0 1.56943 0C1.56751 0 1.5656 0 1.56369 0C1.56178 0 1.55987 0 1.55796 0C1.55605 0 1.55414 0 1.55223 0C1.55032 0 1.54841 0 1.5465 0C1.5446 0 1.54269 0 1.54078 0C1.53888 0 1.53697 0 1.53506 0C1.53316 0 1.53125 0 1.52935 0C1.52745 0 1.52554 0 1.52364 0C1.52174 0 1.51983 0 1.51793 0C1.51603 0 1.51413 0 1.51223 0C1.51033 0 1.50843 0 1.50653 0C1.50463 0 1.50273 0 1.50083 0C1.49893 0 1.49704 0 1.49514 0C1.49324 0 1.49135 0 1.48945 0C1.48756 0 1.48566 0 1.48377 0C1.48187 0 1.47998 0 1.47809 0C1.47619 0 1.4743 0 1.47241 0C1.47052 0 1.46863 0 1.46674 0C1.46485 0 1.46296 0 1.46107 0C1.45918 0 1.45729 0 1.45541 0C1.45352 0 1.45163 0 1.44975 0C1.44786 0 1.44598 0 1.44409 0C1.44221 0 1.44032 0 1.43844 0C1.43656 0 1.43468 0 1.43279 0C1.43091 0 1.42903 0 1.42715 0C1.42527 0 1.42339 0 1.42151 0C1.41963 0 1.41776 0 1.41588 0C1.414 0 1.41213 0 1.41025 0C1.40837 0 1.4065 0 1.40463 0C1.40275 0 1.40088 0 1.39901 0C1.39713 0 1.39526 0 1.39339 0C1.39152 0 1.38965 0 1.38778 0C1.38591 0 1.38404 0 1.38217 0C1.38031 0 1.37844 0 1.37657 0C1.37471 0 1.37284 0 1.37098 0C1.36911 0 1.36725 0 1.36539 0C1.36352 0 1.36166 0 1.3598 0C1.35794 0 1.35608 0 1.35422 0C1.35236 0 1.3505 0 1.34864 0C1.34678 0 1.34493 0 1.34307 0C1.34121 0 1.33936 0 1.3375 0C1.33565 0 1.33379 0 1.33194 0C1.33009 0 1.32824 0 1.32639 0C1.32453 0 1.32268 0 1.32084 0C1.31899 0 1.31714 0 1.31529 0C1.31344 0 1.3116 0 1.30975 0C1.3079 0 1.30606 0 1.30421 0C1.30237 0 1.30053 0 1.29869 0C1.29684 0 1.295 0 1.29316 0C1.29132 0 1.28948 0 1.28764 0C1.2858 0 1.28397 0 1.28213 0C1.28029 0 1.27846 0 1.27662 0C1.27479 0 1.27295 0 1.27112 0C1.26929 0 1.26746 0 1.26562 0C1.26379 0 1.26196 0 1.26013 0C1.25831 0 1.25648 0 1.25465 0C1.25282 0 1.251 0 1.24917 0C1.24735 0 1.24552 0 1.2437 0C1.24188 0 1.24005 0 1.23823 0C1.23641 0 1.23459 0 1.23277 0C1.23095 0 1.22913 0 1.22732 0C1.2255 0 1.22368 0 1.22187 0C1.22005 0 1.21824 0 1.21642 0C1.21461 0 1.2128 0 1.21099 0C1.20918 0 1.20737 0 1.20556 0C1.20375 0 1.20194 0 1.20013 0C1.19832 0 1.19652 0 1.19471 0C1.19291 0 1.1911 0 1.1893 0C1.1875 0 1.1857 0 1.1839 0C1.1821 0 1.1803 0 1.1785 0C1.1767 0 1.1749 0 1.1731 0C1.17131 0 1.16951 0 1.16772 0C1.16592 0 1.16413 0 1.16234 0C1.16055 0 1.15876 0 1.15697 0C1.15518 0 1.15339 0 1.1516 0C1.14981 0 1.14802 0 1.14624 0C1.14445 0 1.14267 0 1.14089 0C1.1391 0 1.13732 0 1.13554 0C1.13376 0 1.13198 0 1.1302 0C1.12842 0 1.12664 0 1.12487 0C1.12309 0 1.12132 0 1.11954 0C1.11777 0 1.11599 0 1.11422 0C1.11245 0 1.11068 0 1.10891 0C1.10714 0 1.10537 0 1.10361 0C1.10184 0 1.10007 0 1.09831 0C1.09654 0 1.09478 0 1.09302 0C1.09126 0 1.08949 0 1.08773 0C1.08597 0 1.08422 0 1.08246 0C1.0807 0 1.07894 0 1.07719 0C1.07543 0 1.07368 0 1.07193 0C1.07017 0 1.06842 0 1.06667 0C1.06492 0 1.06317 0 1.06142 0C1.05968 0 1.05793 0 1.05619 0C1.05444 0 1.0527 0 1.05095 0C1.04921 0 1.04747 0 1.04573 0C1.04399 0 1.04225 0 1.04051 0C1.03877 0 1.03704 0 1.0353 0C1.03357 0 1.03183 0 1.0301 0C1.02837 0 1.02664 0 1.02491 0C1.02317 0 1.02145 0 1.01972 0C1.01799 0 1.01626 0 1.01454 0C1.01281 0 1.01109 0 1.00937 0C1.00765 0 1.00593 0 1.00421 0C1.00249 0 1.00077 0 0.999051 0C0.997334 0 0.995618 0 0.993903 0C0.992189 0 0.990476 0 0.988764 0C0.987053 0 0.985342 0 0.983633 0C0.981924 0 0.980216 0 0.97851 0C0.976804 0 0.975099 0 0.973395 0C0.971692 0 0.969989 0 0.968288 0C0.966588 0 0.964888 0 0.96319 0C0.961492 0 0.959795 0 0.9581 0C0.956404 0 0.95471 0 0.953018 0C0.951325 0 0.949634 0 0.947944 0C0.946254 0 0.944566 0 0.942879 0C0.941192 0 0.939506 0 0.937822 0C0.936138 0 0.934455 0 0.932774 0C0.931093 0 0.929413 0 0.927734 0C0.926056 0 0.924379 0 0.922703 0C0.921028 0 0.919354 0 0.917681 0C0.916008 0 0.914337 0 0.912667 0C0.910997 0 0.909329 0 0.907662 0C0.905995 0 0.90433 0 0.902666 0C0.901002 0 0.899339 0 0.897678 0C0.896017 0 0.894357 0 0.892699 0C0.891041 0 0.889385 0 0.88773 0C0.886075 0 0.884421 0 0.882769 0C0.881117 0 0.879466 0 0.877817 0C0.876168 0 0.87452 0 0.872874 0C0.871228 0 0.869583 0 0.86794 0C0.866297 0 0.864656 0 0.863016 0C0.861376 0 0.859737 0 0.8581 0C0.856463 0 0.854828 0 0.853194 0C0.85156 0 0.849928 0 0.848297 0C0.846666 0 0.845037 0 0.843409 0C0.841782 0 0.840156 0 0.838531 0C0.836907 0 0.835284 0 0.833662 0C0.832041 0 0.830421 0 0.828803 0C0.827184 0 0.825568 0 0.823953 0C0.822337 0 0.820724 0 0.819112 0C0.8175 0 0.81589 0 0.814281 0C0.812672 0 0.811065 0 0.80946 0C0.807854 0 0.80625 0 0.804648 0C0.803046 0 0.801445 0 0.799846 0C0.798247 0 0.79665 0 0.795054 0C0.793458 0 0.791864 0 0.790271 0C0.788679 0 0.787088 0 0.785499 0C0.783909 0 0.782322 0 0.780736 0C0.77915 0 0.777566 0 0.775983 0C0.7744 0 0.77282 0 0.77124 0C0.769661 0 0.768083 0 0.766507 0C0.764931 0 0.763357 0 0.761785 0C0.760212 0 0.758641 0 0.757072 0C0.755503 0 0.753935 0 0.752369 0C0.750804 0 0.749239 0 0.747677 0C0.746115 0 0.744554 0 0.742995 0C0.741436 0 0.739879 0 0.738323 0C0.736768 0 0.735214 0 0.733662 0C0.73211 0 0.730559 0 0.729011 0C0.727462 0 0.725915 0 0.72437 0C0.722825 0 0.721281 0 0.71974 0C0.718198 0 0.716658 0 0.71512 0C0.713582 0 0.712045 0 0.710511 0C0.708976 0 0.707443 0 0.705912 0C0.704381 0 0.702852 0 0.701324 0C0.699797 0 0.698271 0 0.696747 0C0.695223 0 0.693701 0 0.69218 0C0.69066 0 0.689141 0 0.687625 0C0.686108 0 0.684593 0 0.68308 0C0.681566 0 0.680055 0 0.678545 0C0.677036 0 0.675528 0 0.674022 0C0.672516 0 0.671012 0 0.66951 0C0.668008 0 0.666507 0 0.665009 0C0.66351 0 0.662014 0 0.660519 0C0.659024 0 0.657531 0 0.65604 0C0.654548 0 0.653059 0 0.651572 0C0.650084 0 0.648599 0 0.647115 0C0.645631 0 0.644149 0 0.642669 0C0.641189 0 0.639711 0 0.638235 0C0.636759 0 0.635284 0 0.633812 0C0.632339 0 0.630869 0 0.6294 0C0.627932 0 0.626465 0 0.625 0C0.623535 0 0.622072 0 0.620611 0C0.61915 0 0.617691 0 0.616234 0C0.614777 0 0.613321 0 0.611868 0C0.610415 0 0.608963 0 0.607514 0C0.606064 0 0.604617 0 0.603171 0C0.601726 0 0.600282 0 0.59884 0C0.597399 0 0.595959 0 0.594521 0C0.593083 0 0.591648 0 0.590214 0C0.58878 0 0.587348 0 0.585918 0C0.584488 0 0.58306 0 0.581634 0C0.580208 0 0.578784 0 0.577362 0C0.57594 0 0.57452 0 0.573102 0C0.571684 0 0.570268 0 0.568854 0C0.56744 0 0.566029 0 0.564619 0C0.563209 0 0.561801 0 0.560395 0C0.558989 0 0.557585 0 0.556183 0C0.554781 0 0.553381 0 0.551983 0C0.550585 0 0.54919 0 0.547796 0C0.546402 0 0.54501 0 0.543621 0C0.542231 0 0.540843 0 0.539458 0C0.538072 0 0.536689 0 0.535307 0C0.533926 0 0.532546 0 0.531169 0C0.529792 0 0.528417 0 0.527043 0C0.52567 0 0.524299 0 0.52293 0C0.521561 0 0.520194 0 0.518829 0C0.517465 0 0.516102 0 0.514741 0C0.513381 0 0.512022 0 0.510666 0C0.509309 0 0.507955 0 0.506603 0C0.505251 0 0.5039 0 0.502553 0C0.501205 0 0.499859 0 0.498515 0C0.497171 0 0.49583 0 0.49449 0C0.493151 0 0.491814 0 0.490479 0C0.489143 0 0.48781 0 0.48648 0C0.485149 0 0.48382 0 0.482493 0C0.481167 0 0.479843 0 0.47852 0C0.477198 0 0.475878 0 0.47456 0C0.473242 0 0.471927 0 0.470613 0C0.4693 0 0.467988 0 0.466679 0C0.46537 0 0.464063 0 0.462758 0C0.461454 0 0.460151 0 0.458851 0C0.457551 0 0.456252 0 0.454956 0C0.453661 0 0.452367 0 0.451075 0C0.449784 0 0.448495 0 0.447208 0C0.445921 0 0.444636 0 0.443353 0C0.442071 0 0.44079 0 0.439512 0C0.438234 0 0.436958 0 0.435685 0C0.434411 0 0.43314 0 0.431871 0C0.430601 0 0.429335 0 0.42807 0C0.426805 0 0.425543 0 0.424283 0C0.423023 0 0.421765 0 0.42051 0C0.419254 0 0.418001 0 0.41675 0C0.415499 0 0.414251 0 0.413004 0C0.411758 0 0.410514 0 0.409272 0C0.408031 0 0.406791 0 0.405554 0C0.404317 0 0.403082 0 0.40185 0C0.400617 0 0.399387 0 0.398159 0C0.396931 0 0.395706 0 0.394482 0C0.393259 0 0.392038 0 0.39082 0C0.389601 0 0.388385 0 0.387171 0C0.385957 0 0.384746 0 0.383537 0C0.382328 0 0.381121 0 0.379916 0C0.378712 0 0.37751 0 0.37631 0C0.375111 0 0.373913 0 0.372718 0C0.371523 0 0.370331 0 0.369141 0C0.36795 0 0.366763 0 0.365577 0C0.364392 0 0.363209 0 0.362028 0C0.360848 0 0.359669 0 0.358494 0C0.357318 0 0.356144 0 0.354973 0C0.353802 0 0.352634 0 0.351468 0C0.350301 0 0.349138 0 0.347976 0C0.346815 0 0.345656 0 0.3445 0C0.343343 0 0.342189 0 0.341038 0C0.339886 0 0.338737 0 0.33759 0C0.336444 0 0.3353 0 0.334158 0C0.333016 0 0.331877 0 0.33074 0C0.329603 0 0.328469 0 0.327337 0C0.326205 0 0.325075 0 0.323949 0C0.322822 0 0.321697 0 0.320575 0C0.319453 0 0.318334 0 0.317217 0C0.3161 0 0.314985 0 0.313873 0C0.312761 0 0.311652 0 0.310545 0C0.309438 0 0.308333 0 0.307231 0C0.30613 0 0.30503 0 0.303933 0C0.302836 0 0.301742 0 0.30065 0C0.299558 0 0.298469 0 0.297382 0C0.296295 0 0.295211 0 0.29413 0C0.293048 0 0.291969 0 0.290892 0C0.289816 0 0.288742 0 0.28767 0C0.286599 0 0.28553 0 0.284463 0C0.283397 0 0.282333 0 0.281272 0C0.280211 0 0.279152 0 0.278096 0C0.27704 0 0.275987 0 0.274936 0C0.273885 0 0.272837 0 0.271791 0C0.270746 0 0.269703 0 0.268662 0C0.267622 0 0.266584 0 0.265549 0C0.264514 0 0.263481 0 0.262451 0C0.261421 0 0.260394 0 0.259369 0C0.258344 0 0.257322 0 0.256303 0C0.255283 0 0.254267 0 0.253252 0C0.252238 0 0.251227 0 0.250218 0C0.249209 0 0.248203 0 0.247199 0C0.246196 0 0.245195 0 0.244197 0C0.243198 0 0.242203 0 0.24121 0C0.240217 0 0.239227 0 0.238239 0C0.237252 0 0.236267 0 0.235285 0C0.234303 0 0.233323 0 0.232346 0C0.23137 0 0.230396 0 0.229424 0C0.228453 0 0.227484 0 0.226518 0C0.225552 0 0.224589 0 0.223628 0C0.222668 0 0.22171 0 0.220755 0C0.2198 0 0.218848 0 0.217898 0C0.216948 0 0.216002 0 0.215057 0C0.214113 0 0.213172 0 0.212233 0C0.211295 0 0.210359 0 0.209426 0C0.208492 0 0.207562 0 0.206634 0C0.205707 0 0.204782 0 0.20386 0C0.202938 0 0.202018 0 0.201102 0C0.200185 0 0.199272 0 0.198361 0C0.19745 0 0.196541 0 0.195636 0C0.194731 0 0.193828 0 0.192928 0C0.192029 0 0.191132 0 0.190237 0C0.189343 0 0.188452 0 0.187563 0C0.186675 0 0.185789 0 0.184906 0C0.184023 0 0.183143 0 0.182266 0C0.181388 0 0.180514 0 0.179642 0C0.178771 0 0.177902 0 0.177036 0C0.17617 0 0.175307 0 0.174447 0C0.173587 0 0.172729 0 0.171875 0C0.171021 0 0.170169 0 0.16932 0C0.168471 0 0.167625 0 0.166782 0C0.165939 0 0.165099 0 0.164262 0C0.163425 0 0.16259 0 0.161759 0C0.160927 0 0.160099 0 0.159273 0C0.158447 0 0.157625 0 0.156805 0C0.155985 0 0.155168 0 0.154354 0C0.15354 0 0.152729 0 0.15192 0C0.151112 0 0.150307 0 0.149504 0C0.148702 0 0.147903 0 0.147106 0C0.146309 0 0.145516 0 0.144725 0C0.143935 0 0.143147 0 0.142362 0C0.141577 0 0.140796 0 0.140017 0C0.139238 0 0.138462 0 0.137689 0C0.136916 0 0.136146 0 0.135379 0C0.134612 0 0.133848 0 0.133087 0C0.132326 0 0.131568 0 0.130813 0C0.130058 0 0.129306 0 0.128557 0C0.127808 0 0.127062 0 0.126319 0C0.125575 0 0.124835 0 0.124098 0C0.123361 0 0.122627 0 0.121896 0C0.121165 0 0.120437 0 0.119712 0C0.118987 0 0.118265 0 0.117546 0C0.116827 0 0.116111 0 0.115398 0C0.114686 0 0.113976 0 0.113269 0C0.112562 0 0.111858 0 0.111158 0C0.110457 0 0.109759 0 0.109065 0C0.10837 0 0.107679 0 0.10699 0C0.106302 0 0.105617 0 0.104934 0C0.104252 0 0.103573 0 0.102897 0C0.102221 0 0.101547 0 0.100878 0C0.100208 0 0.0995407 0 0.098877 0C0.0982132 0 0.0975525 0 0.096895 0C0.0962374 0 0.095583 0 0.0949317 0C0.0942803 0 0.0936321 0 0.092987 0C0.0923419 0 0.0917 0 0.0910611 0C0.0904223 0 0.0897866 0 0.089154 0C0.0885214 0 0.087892 0 0.0872657 0C0.0866394 0 0.0860162 0 0.0853962 0C0.0847762 0 0.0841594 0 0.0835457 0C0.082932 0 0.0823215 0 0.0817141 0C0.0811067 0 0.0805025 0 0.0799015 0C0.0793005 0 0.0787026 0 0.078108 0C0.0775133 0 0.0769218 0 0.0763335 0C0.0757452 0 0.0751601 0 0.0745782 0C0.0739963 0 0.0734176 0 0.0728421 0C0.0722665 0 0.0716942 0 0.0711251 0C0.070556 0 0.0699902 0 0.0694275 0C0.0688648 0 0.0683054 0 0.0677492 0C0.0671929 0 0.0666399 0 0.0660902 0C0.0655404 0 0.0649939 0 0.0644506 0C0.0639073 0 0.0633672 0 0.0628304 0C0.0622936 0 0.0617601 0 0.0612298 0C0.0606995 0 0.0601725 0 0.0596487 0C0.0591249 0 0.0586044 0 0.0580872 0C0.0575699 0 0.057056 0 0.0565453 0C0.0560346 0 0.0555272 0 0.055023 0C0.0545189 0 0.0540181 0 0.0535205 0C0.053023 0 0.0525287 0 0.0520377 0C0.0515468 0 0.0510591 0 0.0505748 0C0.0500904 0 0.0496094 0 0.0491317 0C0.0486539 0 0.0481795 0 0.0477085 0C0.0472374 0 0.0467696 0 0.0463052 0C0.0458407 0 0.0453796 0 0.0449219 0C0.0444641 0 0.0440097 0 0.0435586 0C0.0431075 0 0.0426598 0 0.0422154 0C0.041771 0 0.04133 0 0.0408923 0C0.0404547 0 0.0400203 0 0.0395894 0C0.0391585 0 0.0387309 0 0.0383067 0C0.0378825 0 0.0374617 0 0.0370442 0C0.0366268 0 0.0362127 0 0.0358021 0C0.0353914 0 0.0349841 0 0.0345802 0C0.0341763 0 0.0337759 0 0.0333788 0C0.0329817 0 0.032588 0 0.0321978 0C0.0318075 0 0.0314207 0 0.0310372 0C0.0306538 0 0.0302738 0 0.0298972 0C0.0295206 0 0.0291475 0 0.0287778 0C0.028408 0 0.0280418 0 0.0276789 0C0.0273161 0 0.0269567 0 0.0266007 0C0.0262448 0 0.0258923 0 0.0255432 0C0.0251942 0 0.0248486 0 0.0245065 0C0.0241643 0 0.0238257 0 0.0234905 0C0.0231553 0 0.0228236 0 0.0224954 0C0.0221671 0 0.0218424 0 0.0215211 0C0.0211998 0 0.020882 0 0.0205678 0C0.0202535 0 0.0199427 0 0.0196354 0C0.0193281 0 0.0190243 0 0.018724 0C0.0184237 0 0.018127 0 0.0178337 0C0.0175405 0 0.0172507 0 0.0169645 0C0.0166783 0 0.0163956 0 0.0161164 0C0.0158373 0 0.0155617 0 0.0152896 0C0.0150175 0 0.0147489 0 0.0144839 0C0.0142189 0 0.0139575 0 0.0136996 0C0.0134417 0 0.0131873 0 0.0129365 0C0.0126857 0 0.0124385 0 0.0121949 0C0.0119512 0 0.0117111 0 0.0114746 0C0.0112381 0 0.0110052 0 0.0107758 0C0.0105465 0 0.0103207 0 0.0100985 0C0.00987634 0 0.00965776 0 0.00944277 0C0.00922778 0 0.00901639 0 0.00880861 0C0.00860083 0 0.00839666 0 0.00819609 0C0.00799553 0 0.00779858 0 0.00760525 0C0.00741193 0 0.00722222 0 0.00703614 0C0.00685006 0 0.00666761 0 0.0064888 0C0.00630999 0 0.00613481 0 0.00596327 0C0.00579174 0 0.00562385 0 0.00545961 0C0.00529537 0 0.00513478 0 0.00497784 0C0.00482091 0 0.00466764 0 0.00451803 0C0.00436842 0 0.00422248 0 0.00408021 0C0.00393794 0 0.00379935 0 0.00366443 0C0.00352952 0 0.00339828 0 0.00327074 0C0.00314319 0 0.00301933 0 0.00289917 0C0.00277901 0 0.00266254 0 0.00254977 0C0.00243701 0 0.00232795 0 0.0022226 0C0.00211725 0 0.00201561 0 0.00191768 0C0.00181976 0 0.00172555 0 0.00163507 0C0.00154459 0 0.00145784 0 0.00137482 0C0.0012918 0 0.00121251 0 0.00113696 0C0.00106141 0 0.000989601 0 0.00092154 0C0.000853479 0 0.000789165 0 0.000728607 0C0.000668049 0 0.000611246 0 0.000558205 0C0.000505164 0 0.000455886 0 0.000410378 0C0.00036487 0 0.000323132 0 0.000285171 0C0.00024721 0 0.000213027 0 0.000182629 0C0.00015223 0 0.000125617 0 0.000102796 0C7.99745e-05 0 6.09457e-05 0 4.57168e-05 0C3.04878e-05 0 1.90586e-05 0 1.14366e-05 0C3.8147e-06 0 0 0 0 1ZM2 2C2.26128 2 2.43686 2.00064 2.58432 2.01244C2.72484 2.02368 2.78754 2.04205 2.81611 2.05348C2.81696 2.05382 2.91627 2.06861 3.10557 2.44721L4.89443 1.55279C4.58373 0.931386 4.18304 0.446181 3.55889 0.196523C3.02921 -0.0153485 2.43465 0 2 0V2ZM7 15C7 16 7.00002 16 7.00007 16C7.00012 16 7.0002 16 7.0003 16C7.0004 16 7.00052 16 7.00067 16C7.00082 16 7.00099 16 7.00118 16C7.00138 16 7.0016 16 7.00185 16C7.0021 16 7.00237 16 7.00266 16C7.00295 16 7.00327 16 7.00362 16C7.00396 16 7.00433 16 7.00472 16C7.00511 16 7.00553 16 7.00597 16C7.00641 16 7.00687 16 7.00736 16C7.00784 16 7.00836 16 7.00889 16C7.00943 16 7.00999 16 7.01057 16C7.01115 16 7.01176 16 7.01239 16C7.01302 16 7.01368 16 7.01435 16C7.01503 16 7.01573 16 7.01646 16C7.01719 16 7.01793 16 7.01871 16C7.01948 16 7.02028 16 7.0211 16C7.02191 16 7.02276 16 7.02362 16C7.02449 16 7.02538 16 7.02629 16C7.0272 16 7.02814 16 7.0291 16C7.03006 16 7.03104 16 7.03205 16C7.03305 16 7.03408 16 7.03513 16C7.03618 16 7.03726 16 7.03835 16C7.03945 16 7.04057 16 7.04171 16C7.04286 16 7.04402 16 7.04521 16C7.0464 16 7.04761 16 7.04884 16C7.05008 16 7.05134 16 7.05261 16C7.05389 16 7.0552 16 7.05652 16C7.05784 16 7.05919 16 7.06056 16C7.06193 16 7.06332 16 7.06474 16C7.06615 16 7.06759 16 7.06904 16C7.0705 16 7.07198 16 7.07349 16C7.07499 16 7.07651 16 7.07806 16C7.07961 16 7.08118 16 7.08277 16C7.08436 16 7.08597 16 7.08761 16C7.08924 16 7.0909 16 7.09258 16C7.09426 16 7.09596 16 7.09768 16C7.09941 16 7.10115 16 7.10292 16C7.10468 16 7.10647 16 7.10828 16C7.11009 16 7.11192 16 7.11377 16C7.11563 16 7.1175 16 7.1194 16C7.12129 16 7.12321 16 7.12515 16C7.12708 16 7.12904 16 7.13102 16C7.13301 16 7.13501 16 7.13703 16C7.13905 16 7.1411 16 7.14316 16C7.14523 16 7.14732 16 7.14942 16C7.15153 16 7.15366 16 7.15581 16C7.15796 16 7.16013 16 7.16232 16C7.16451 16 7.16673 16 7.16896 16C7.17119 16 7.17345 16 7.17572 16C7.178 16 7.18029 16 7.18261 16C7.18492 16 7.18726 16 7.18962 16C7.19197 16 7.19435 16 7.19675 16C7.19915 16 7.20157 16 7.20401 16C7.20645 16 7.2089 16 7.21138 16C7.21386 16 7.21636 16 7.21888 16C7.2214 16 7.22394 16 7.2265 16C7.22906 16 7.23165 16 7.23425 16C7.23685 16 7.23947 16 7.24211 16C7.24475 16 7.24741 16 7.25009 16C7.25277 16 7.25547 16 7.25819 16C7.26091 16 7.26365 16 7.26641 16C7.26917 16 7.27195 16 7.27475 16C7.27755 16 7.28036 16 7.2832 16C7.28604 16 7.2889 16 7.29178 16C7.29465 16 7.29755 16 7.30047 16C7.30338 16 7.30632 16 7.30927 16C7.31223 16 7.3152 16 7.31819 16C7.32119 16 7.3242 16 7.32723 16C7.33026 16 7.33331 16 7.33638 16C7.33945 16 7.34254 16 7.34565 16C7.34876 16 7.35188 16 7.35503 16C7.35818 16 7.36134 16 7.36452 16C7.36771 16 7.37091 16 7.37413 16C7.37735 16 7.38059 16 7.38385 16C7.38711 16 7.39038 16 7.39368 16C7.39698 16 7.40029 16 7.40362 16C7.40695 16 7.41031 16 7.41368 16C7.41704 16 7.42043 16 7.42384 16C7.42725 16 7.43067 16 7.43411 16C7.43756 16 7.44102 16 7.4445 16C7.44797 16 7.45147 16 7.45499 16C7.4585 16 7.46204 16 7.46559 16C7.46914 16 7.47271 16 7.4763 16C7.47988 16 7.48349 16 7.48711 16C7.49073 16 7.49438 16 7.49803 16C7.50169 16 7.50537 16 7.50906 16C7.51276 16 7.51647 16 7.5202 16C7.52393 16 7.52768 16 7.53144 16C7.5352 16 7.53899 16 7.54279 16C7.54658 16 7.5504 16 7.55424 16C7.55807 16 7.56192 16 7.56579 16C7.56966 16 7.57354 16 7.57745 16C7.58135 16 7.58527 16 7.58921 16C7.59315 16 7.5971 16 7.60107 16C7.60504 16 7.60903 16 7.61304 16C7.61704 16 7.62106 16 7.6251 16C7.62914 16 7.6332 16 7.63727 16C7.64134 16 7.64543 16 7.64954 16C7.65365 16 7.65777 16 7.66191 16C7.66605 16 7.67021 16 7.67438 16C7.67855 16 7.68274 16 7.68695 16C7.69115 16 7.69537 16 7.69961 16C7.70385 16 7.7081 16 7.71238 16C7.71665 16 7.72093 16 7.72524 16C7.72954 16 7.73386 16 7.7382 16C7.74253 16 7.74688 16 7.75125 16C7.75562 16 7.76 16 7.7644 16C7.7688 16 7.77322 16 7.77765 16C7.78208 16 7.78653 16 7.79099 16C7.79546 16 7.79994 16 7.80443 16C7.80893 16 7.81344 16 7.81796 16C7.82249 16 7.82703 16 7.83159 16C7.83615 16 7.84072 16 7.84531 16C7.84989 16 7.8545 16 7.85912 16C7.86374 16 7.86837 16 7.87302 16C7.87767 16 7.88234 16 7.88702 16C7.8917 16 7.89639 16 7.9011 16C7.90581 16 7.91054 16 7.91528 16C7.92002 16 7.92478 16 7.92955 16C7.93432 16 7.9391 16 7.9439 16C7.9487 16 7.95352 16 7.95835 16C7.96318 16 7.96803 16 7.97288 16C7.97774 16 7.98262 16 7.98751 16C7.9924 16 7.9973 16 8.00222 16C8.00714 16 8.01207 16 8.01702 16C8.02197 16 8.02693 16 8.0319 16C8.03688 16 8.04187 16 8.04688 16C8.05188 16 8.0569 16 8.06193 16C8.06697 16 8.07201 16 8.07708 16C8.08214 16 8.08721 16 8.0923 16C8.09739 16 8.1025 16 8.10761 16C8.11273 16 8.11786 16 8.12301 16C8.12816 16 8.13332 16 8.13849 16C8.14366 16 8.14885 16 8.15405 16C8.15925 16 8.16447 16 8.1697 16C8.17493 16 8.18017 16 8.18542 16C8.19068 16 8.19595 16 8.20123 16C8.20651 16 8.21181 16 8.21712 16C8.22243 16 8.22775 16 8.23309 16C8.23843 16 8.24378 16 8.24914 16C8.2545 16 8.25988 16 8.26527 16C8.27066 16 8.27606 16 8.28147 16C8.28689 16 8.29232 16 8.29776 16C8.3032 16 8.30866 16 8.31412 16C8.31959 16 8.32507 16 8.33057 16C8.33606 16 8.34156 16 8.34708 16C8.3526 16 8.35813 16 8.36368 16C8.36922 16 8.37478 16 8.38035 16C8.38592 16 8.3915 16 8.3971 16C8.40269 16 8.4083 16 8.41392 16C8.41954 16 8.42517 16 8.43081 16C8.43646 16 8.44211 16 8.44778 16C8.45345 16 8.45913 16 8.46483 16C8.47052 16 8.47623 16 8.48194 16C8.48766 16 8.49339 16 8.49913 16C8.50487 16 8.51063 16 8.51639 16C8.52216 16 8.52794 16 8.53373 16C8.53951 16 8.54532 16 8.55113 16C8.55694 16 8.56277 16 8.5686 16C8.57444 16 8.58029 16 8.58615 16C8.59201 16 8.59788 16 8.60376 16C8.60964 16 8.61554 16 8.62145 16C8.62735 16 8.63327 16 8.6392 16C8.64513 16 8.65107 16 8.65702 16C8.66297 16 8.66893 16 8.6749 16C8.68088 16 8.68686 16 8.69286 16C8.69885 16 8.70486 16 8.71088 16C8.7169 16 8.72293 16 8.72897 16C8.73501 16 8.74106 16 8.74712 16C8.75318 16 8.75926 16 8.76534 16C8.77142 16 8.77752 16 8.78362 16C8.78973 16 8.79584 16 8.80197 16C8.8081 16 8.81423 16 8.82038 16C8.82653 16 8.83269 16 8.83885 16C8.84502 16 8.8512 16 8.85739 16C8.86358 16 8.86978 16 8.87599 16C8.8822 16 8.88842 16 8.89465 16C8.90088 16 8.90712 16 8.91337 16C8.91962 16 8.92589 16 8.93216 16C8.93843 16 8.94471 16 8.951 16C8.95729 16 8.96359 16 8.9699 16C8.97621 16 8.98253 16 8.98886 16C8.99519 16 9.00153 16 9.00788 16C9.01424 16 9.02059 16 9.02696 16C9.03333 16 9.03971 16 9.0461 16C9.05249 16 9.05889 16 9.0653 16C9.0717 16 9.07812 16 9.08455 16C9.09097 16 9.09741 16 9.10385 16C9.1103 16 9.11675 16 9.12322 16C9.12968 16 9.13615 16 9.14264 16C9.14912 16 9.15561 16 9.16211 16C9.16861 16 9.17512 16 9.18164 16C9.18816 16 9.19468 16 9.20122 16C9.20776 16 9.2143 16 9.22085 16C9.22741 16 9.23397 16 9.24054 16C9.24711 16 9.25369 16 9.26028 16C9.26687 16 9.27347 16 9.28007 16C9.28668 16 9.2933 16 9.29992 16C9.30654 16 9.31317 16 9.31981 16C9.32645 16 9.3331 16 9.33976 16C9.34641 16 9.35308 16 9.35975 16C9.36643 16 9.37311 16 9.3798 16C9.38649 16 9.39318 16 9.39989 16C9.4066 16 9.41331 16 9.42003 16C9.42675 16 9.43348 16 9.44022 16C9.44696 16 9.45371 16 9.46046 16C9.46721 16 9.47397 16 9.48074 16C9.48751 16 9.49429 16 9.50107 16C9.50786 16 9.51465 16 9.52145 16C9.52825 16 9.53506 16 9.54187 16C9.54869 16 9.55551 16 9.56234 16C9.56917 16 9.57601 16 9.58285 16C9.5897 16 9.59655 16 9.60341 16C9.61027 16 9.61713 16 9.62401 16C9.63088 16 9.63776 16 9.64465 16C9.65154 16 9.65843 16 9.66533 16C9.67224 16 9.67915 16 9.68606 16C9.69298 16 9.6999 16 9.70683 16C9.71376 16 9.7207 16 9.72764 16C9.73458 16 9.74153 16 9.74849 16C9.75545 16 9.76241 16 9.76938 16C9.77635 16 9.78333 16 9.79031 16C9.79729 16 9.80428 16 9.81128 16C9.81828 16 9.82528 16 9.83229 16C9.8393 16 9.84631 16 9.85333 16C9.86035 16 9.86738 16 9.87442 16C9.88145 16 9.88849 16 9.89554 16C9.90258 16 9.90964 16 9.91669 16C9.92375 16 9.93082 16 9.93789 16C9.94496 16 9.95203 16 9.95912 16C9.9662 16 9.97329 16 9.98038 16C9.98747 16 9.99457 16 10.0017 16C10.0088 16 10.0159 16 10.023 16C10.0301 16 10.0373 16 10.0444 16C10.0515 16 10.0586 16 10.0658 16C10.0729 16 10.0801 16 10.0872 16C10.0944 16 10.1015 16 10.1087 16C10.1158 16 10.123 16 10.1302 16C10.1373 16 10.1445 16 10.1517 16C10.1589 16 10.1661 16 10.1733 16C10.1805 16 10.1876 16 10.1949 16C10.2021 16 10.2093 16 10.2165 16C10.2237 16 10.2309 16 10.2381 16C10.2453 16 10.2526 16 10.2598 16C10.267 16 10.2743 16 10.2815 16C10.2887 16 10.296 16 10.3032 16C10.3105 16 10.3177 16 10.325 16C10.3323 16 10.3395 16 10.3468 16C10.354 16 10.3613 16 10.3686 16C10.3759 16 10.3831 16 10.3904 16C10.3977 16 10.405 16 10.4123 16C10.4196 16 10.4269 16 10.4342 16C10.4415 16 10.4488 16 10.4561 16C10.4634 16 10.4707 16 10.478 16C10.4854 16 10.4927 16 10.5 16C10.5073 16 10.5147 16 10.522 16C10.5293 16 10.5367 16 10.544 16C10.5513 16 10.5587 16 10.566 16C10.5734 16 10.5807 16 10.5881 16C10.5954 16 10.6028 16 10.6101 16C10.6175 16 10.6249 16 10.6322 16C10.6396 16 10.647 16 10.6543 16C10.6617 16 10.6691 16 10.6765 16C10.6839 16 10.6912 16 10.6986 16C10.706 16 10.7134 16 10.7208 16C10.7282 16 10.7356 16 10.743 16C10.7504 16 10.7578 16 10.7652 16C10.7726 16 10.78 16 10.7874 16C10.7948 16 10.8022 16 10.8096 16C10.8171 16 10.8245 16 10.8319 16C10.8393 16 10.8467 16 10.8542 16C10.8616 16 10.869 16 10.8764 16C10.8839 16 10.8913 16 10.8987 16C10.9062 16 10.9136 16 10.921 16C10.9285 16 10.9359 16 10.9434 16C10.9508 16 10.9583 16 10.9657 16C10.9732 16 10.9806 16 10.9881 16C10.9955 16 11.003 16 11.0104 16C11.0179 16 11.0253 16 11.0328 16C11.0403 16 11.0477 16 11.0552 16C11.0627 16 11.0701 16 11.0776 16C11.0851 16 11.0925 16 11.1 16C11.1075 16 11.1149 16 11.1224 16C11.1299 16 11.1374 16 11.1448 16C11.1523 16 11.1598 16 11.1673 16C11.1747 16 11.1822 16 11.1897 16C11.1972 16 11.2047 16 11.2122 16C11.2196 16 11.2271 16 11.2346 16C11.2421 16 11.2496 16 11.2571 16C11.2646 16 11.2721 16 11.2795 16C11.287 16 11.2945 16 11.302 16C11.3095 16 11.317 16 11.3245 16C11.332 16 11.3395 16 11.347 16C11.3545 16 11.362 16 11.3695 16C11.377 16 11.3845 16 11.392 16C11.3995 16 11.407 16 11.4145 16C11.422 16 11.4295 16 11.437 16C11.4445 16 11.452 16 11.4595 16C11.467 16 11.4745 16 11.482 16C11.4895 16 11.497 16 11.5045 16C11.512 16 11.5195 16 11.527 16C11.5345 16 11.542 16 11.5495 16C11.557 16 11.5645 16 11.572 16C11.5795 16 11.587 16 11.5945 16C11.602 16 11.6095 16 11.617 16C11.6245 16 11.632 16 11.6395 16C11.647 16 11.6545 16 11.662 16C11.6695 16 11.677 16 11.6845 16C11.692 16 11.6995 16 11.707 16C11.7145 16 11.722 16 11.7295 16C11.737 16 11.7445 16 11.752 16C11.7595 16 11.767 16 11.7744 16C11.7819 16 11.7894 16 11.7969 16C11.8044 16 11.8119 16 11.8194 16C11.8269 16 11.8344 16 11.8419 16C11.8493 16 11.8568 16 11.8643 16C11.8718 16 11.8793 16 11.8868 16C11.8942 16 11.9017 16 11.9092 16C11.9167 16 11.9242 16 11.9316 16C11.9391 16 11.9466 16 11.9541 16C11.9615 16 11.969 16 11.9765 16C11.984 16 11.9914 16 11.9989 16C12.0064 16 12.0138 16 12.0213 16C12.0288 16 12.0362 16 12.0437 16C12.0511 16 12.0586 16 12.0661 16C12.0735 16 12.081 16 12.0884 16C12.0959 16 12.1033 16 12.1108 16C12.1182 16 12.1257 16 12.1331 16C12.1406 16 12.148 16 12.1554 16C12.1629 16 12.1703 16 12.1777 16C12.1852 16 12.1926 16 12.2 16C12.2075 16 12.2149 16 12.2223 16C12.2298 16 12.2372 16 12.2446 16C12.252 16 12.2594 16 12.2669 16C12.2743 16 12.2817 16 12.2891 16C12.2965 16 12.3039 16 12.3113 16C12.3187 16 12.3261 16 12.3335 16C12.3409 16 12.3483 16 12.3557 16C12.3631 16 12.3705 16 12.3779 16C12.3853 16 12.3926 16 12.4 16C12.4074 16 12.4148 16 12.4222 16C12.4295 16 12.4369 16 12.4443 16C12.4516 16 12.459 16 12.4664 16C12.4737 16 12.4811 16 12.4884 16C12.4958 16 12.5031 16 12.5105 16C12.5178 16 12.5252 16 12.5325 16C12.5399 16 12.5472 16 12.5545 16C12.5619 16 12.5692 16 12.5765 16C12.5838 16 12.5912 16 12.5985 16C12.6058 16 12.6131 16 12.6204 16C12.6277 16 12.635 16 12.6423 16C12.6496 16 12.6569 16 12.6642 16C12.6715 16 12.6788 16 12.6861 16C12.6934 16 12.7007 16 12.7079 16C12.7152 16 12.7225 16 12.7298 16C12.737 16 12.7443 16 12.7515 16C12.7588 16 12.7661 16 12.7733 16C12.7806 16 12.7878 16 12.795 16C12.8023 16 12.8095 16 12.8167 16C12.824 16 12.8312 16 12.8384 16C12.8456 16 12.8529 16 12.8601 16C12.8673 16 12.8745 16 12.8817 16C12.8889 16 12.8961 16 12.9033 16C12.9105 16 12.9177 16 12.9249 16C12.932 16 12.9392 16 12.9464 16C12.9536 16 12.9607 16 12.9679 16C12.975 16 12.9822 16 12.9893 16C12.9965 16 13.0036 16 13.0108 16C13.0179 16 13.0251 16 13.0322 16C13.0393 16 13.0464 16 13.0536 16C13.0607 16 13.0678 16 13.0749 16C13.082 16 13.0891 16 13.0962 16C13.1033 16 13.1104 16 13.1175 16C13.1245 16 13.1316 16 13.1387 16C13.1458 16 13.1528 16 13.1599 16C13.167 16 13.174 16 13.1811 16C13.1881 16 13.1951 16 13.2022 16C13.2092 16 13.2162 16 13.2233 16C13.2303 16 13.2373 16 13.2443 16C13.2513 16 13.2583 16 13.2653 16C13.2723 16 13.2793 16 13.2863 16C13.2933 16 13.3003 16 13.3072 16C13.3142 16 13.3212 16 13.3281 16C13.3351 16 13.342 16 13.349 16C13.3559 16 13.3629 16 13.3698 16C13.3767 16 13.3836 16 13.3906 16C13.3975 16 13.4044 16 13.4113 16C13.4182 16 13.4251 16 13.432 16C13.4389 16 13.4458 16 13.4526 16C13.4595 16 13.4664 16 13.4732 16C13.4801 16 13.4869 16 13.4938 16C13.5006 16 13.5075 16 13.5143 16C13.5211 16 13.528 16 13.5348 16C13.5416 16 13.5484 16 13.5552 16C13.562 16 13.5688 16 13.5756 16C13.5824 16 13.5892 16 13.5959 16C13.6027 16 13.6095 16 13.6162 16C13.623 16 13.6297 16 13.6365 16C13.6432 16 13.6499 16 13.6566 16C13.6634 16 13.6701 16 13.6768 16C13.6835 16 13.6902 16 13.6969 16C13.7036 16 13.7103 16 13.7169 16C13.7236 16 13.7303 16 13.7369 16C13.7436 16 13.7502 16 13.7569 16C13.7635 16 13.7702 16 13.7768 16C13.7834 16 13.79 16 13.7966 16C13.8032 16 13.8098 16 13.8164 16C13.823 16 13.8296 16 13.8362 16C13.8428 16 13.8493 16 13.8559 16C13.8624 16 13.869 16 13.8755 16C13.882 16 13.8886 16 13.8951 16C13.9016 16 13.9081 16 13.9146 16C13.9211 16 13.9276 16 13.9341 16C13.9406 16 13.9471 16 13.9535 16C13.96 16 13.9665 16 13.9729 16C13.9793 16 13.9858 16 13.9922 16C13.9986 16 14.0051 16 14.0115 16C14.0179 16 14.0243 16 14.0307 16C14.0371 16 14.0434 16 14.0498 16C14.0562 16 14.0625 16 14.0689 16C14.0752 16 14.0816 16 14.0879 16C14.0943 16 14.1006 16 14.1069 16C14.1132 16 14.1195 16 14.1258 16C14.1321 16 14.1384 16 14.1446 16C14.1509 16 14.1572 16 14.1634 16C14.1697 16 14.1759 16 14.1822 16C14.1884 16 14.1946 16 14.2008 16C14.207 16 14.2132 16 14.2194 16C14.2256 16 14.2318 16 14.238 16C14.2441 16 14.2503 16 14.2565 16C14.2626 16 14.2687 16 14.2749 16C14.281 16 14.2871 16 14.2932 16C14.2993 16 14.3054 16 14.3115 16C14.3176 16 14.3237 16 14.3297 16C14.3358 16 14.3419 16 14.3479 16C14.3539 16 14.36 16 14.366 16C14.372 16 14.378 16 14.384 16C14.39 16 14.396 16 14.402 16C14.408 16 14.4139 16 14.4199 16C14.4258 16 14.4318 16 14.4377 16C14.4436 16 14.4495 16 14.4555 16C14.4614 16 14.4673 16 14.4731 16C14.479 16 14.4849 16 14.4908 16C14.4966 16 14.5025 16 14.5083 16C14.5142 16 14.52 16 14.5258 16C14.5316 16 14.5374 16 14.5432 16C14.549 16 14.5548 16 14.5605 16C14.5663 16 14.5721 16 14.5778 16C14.5836 16 14.5893 16 14.595 16C14.6007 16 14.6064 16 14.6121 16C14.6178 16 14.6235 16 14.6292 16C14.6349 16 14.6405 16 14.6462 16C14.6518 16 14.6574 16 14.6631 16C14.6687 16 14.6743 16 14.6799 16C14.6855 16 14.6911 16 14.6966 16C14.7022 16 14.7078 16 14.7133 16C14.7189 16 14.7244 16 14.7299 16C14.7354 16 14.741 16 14.7464 16C14.7519 16 14.7574 16 14.7629 16C14.7684 16 14.7738 16 14.7793 16C14.7847 16 14.7901 16 14.7956 16C14.801 16 14.8064 16 14.8118 16C14.8172 16 14.8225 16 14.8279 16C14.8333 16 14.8386 16 14.844 16C14.8493 16 14.8546 16 14.8599 16C14.8653 16 14.8706 16 14.8758 16C14.8811 16 14.8864 16 14.8917 16C14.8969 16 14.9022 16 14.9074 16C14.9126 16 14.9178 16 14.923 16C14.9282 16 14.9334 16 14.9386 16C14.9438 16 14.9489 16 14.9541 16C14.9592 16 14.9644 16 14.9695 16C14.9746 16 14.9797 16 14.9848 16C14.9899 16 14.995 16 15.0001 16C15.0051 16 15.0102 16 15.0152 16C15.0202 16 15.0253 16 15.0303 16C15.0353 16 15.0403 16 15.0453 16C15.0502 16 15.0552 16 15.0601 16C15.0651 16 15.07 16 15.075 16C15.0799 16 15.0848 16 15.0897 16C15.0946 16 15.0994 16 15.1043 16C15.1092 16 15.114 16 15.1188 16C15.1237 16 15.1285 16 15.1333 16C15.1381 16 15.1429 16 15.1477 16C15.1524 16 15.1572 16 15.1619 16C15.1667 16 15.1714 16 15.1761 16C15.1808 16 15.1855 16 15.1902 16C15.1949 16 15.1996 16 15.2042 16C15.2089 16 15.2135 16 15.2181 16C15.2228 16 15.2274 16 15.232 16C15.2365 16 15.2411 16 15.2457 16C15.2502 16 15.2548 16 15.2593 16C15.2638 16 15.2684 16 15.2729 16C15.2774 16 15.2818 16 15.2863 16C15.2908 16 15.2952 16 15.2997 16C15.3041 16 15.3085 16 15.3129 16C15.3173 16 15.3217 16 15.3261 16C15.3304 16 15.3348 16 15.3391 16C15.3435 16 15.3478 16 15.3521 16C15.3564 16 15.3607 16 15.365 16C15.3692 16 15.3735 16 15.3777 16C15.382 16 15.3862 16 15.3904 16C15.3946 16 15.3988 16 15.403 16C15.4072 16 15.4113 16 15.4155 16C15.4196 16 15.4237 16 15.4279 16C15.432 16 15.4361 16 15.4401 16C15.4442 16 15.4483 16 15.4523 16C15.4563 16 15.4604 16 15.4644 16C15.4684 16 15.4724 16 15.4764 16C15.4803 16 15.4843 16 15.4882 16C15.4922 16 15.4961 16 15.5 16V14C15.4961 14 15.4922 14 15.4882 14C15.4843 14 15.4803 14 15.4764 14C15.4724 14 15.4684 14 15.4644 14C15.4604 14 15.4563 14 15.4523 14C15.4483 14 15.4442 14 15.4401 14C15.4361 14 15.432 14 15.4279 14C15.4237 14 15.4196 14 15.4155 14C15.4113 14 15.4072 14 15.403 14C15.3988 14 15.3946 14 15.3904 14C15.3862 14 15.382 14 15.3777 14C15.3735 14 15.3692 14 15.365 14C15.3607 14 15.3564 14 15.3521 14C15.3478 14 15.3435 14 15.3391 14C15.3348 14 15.3304 14 15.3261 14C15.3217 14 15.3173 14 15.3129 14C15.3085 14 15.3041 14 15.2997 14C15.2952 14 15.2908 14 15.2863 14C15.2818 14 15.2774 14 15.2729 14C15.2684 14 15.2638 14 15.2593 14C15.2548 14 15.2502 14 15.2457 14C15.2411 14 15.2365 14 15.232 14C15.2274 14 15.2228 14 15.2181 14C15.2135 14 15.2089 14 15.2042 14C15.1996 14 15.1949 14 15.1902 14C15.1855 14 15.1808 14 15.1761 14C15.1714 14 15.1667 14 15.1619 14C15.1572 14 15.1524 14 15.1477 14C15.1429 14 15.1381 14 15.1333 14C15.1285 14 15.1237 14 15.1188 14C15.114 14 15.1092 14 15.1043 14C15.0994 14 15.0946 14 15.0897 14C15.0848 14 15.0799 14 15.075 14C15.07 14 15.0651 14 15.0601 14C15.0552 14 15.0502 14 15.0453 14C15.0403 14 15.0353 14 15.0303 14C15.0253 14 15.0202 14 15.0152 14C15.0102 14 15.0051 14 15.0001 14C14.995 14 14.9899 14 14.9848 14C14.9797 14 14.9746 14 14.9695 14C14.9644 14 14.9592 14 14.9541 14C14.9489 14 14.9438 14 14.9386 14C14.9334 14 14.9282 14 14.923 14C14.9178 14 14.9126 14 14.9074 14C14.9022 14 14.8969 14 14.8917 14C14.8864 14 14.8811 14 14.8758 14C14.8706 14 14.8653 14 14.8599 14C14.8546 14 14.8493 14 14.844 14C14.8386 14 14.8333 14 14.8279 14C14.8225 14 14.8172 14 14.8118 14C14.8064 14 14.801 14 14.7956 14C14.7901 14 14.7847 14 14.7793 14C14.7738 14 14.7684 14 14.7629 14C14.7574 14 14.7519 14 14.7464 14C14.741 14 14.7354 14 14.7299 14C14.7244 14 14.7189 14 14.7133 14C14.7078 14 14.7022 14 14.6966 14C14.6911 14 14.6855 14 14.6799 14C14.6743 14 14.6687 14 14.6631 14C14.6574 14 14.6518 14 14.6462 14C14.6405 14 14.6349 14 14.6292 14C14.6235 14 14.6178 14 14.6121 14C14.6064 14 14.6007 14 14.595 14C14.5893 14 14.5836 14 14.5778 14C14.5721 14 14.5663 14 14.5605 14C14.5548 14 14.549 14 14.5432 14C14.5374 14 14.5316 14 14.5258 14C14.52 14 14.5142 14 14.5083 14C14.5025 14 14.4966 14 14.4908 14C14.4849 14 14.479 14 14.4731 14C14.4673 14 14.4614 14 14.4555 14C14.4495 14 14.4436 14 14.4377 14C14.4318 14 14.4258 14 14.4199 14C14.4139 14 14.408 14 14.402 14C14.396 14 14.39 14 14.384 14C14.378 14 14.372 14 14.366 14C14.36 14 14.3539 14 14.3479 14C14.3419 14 14.3358 14 14.3297 14C14.3237 14 14.3176 14 14.3115 14C14.3054 14 14.2993 14 14.2932 14C14.2871 14 14.281 14 14.2749 14C14.2687 14 14.2626 14 14.2565 14C14.2503 14 14.2441 14 14.238 14C14.2318 14 14.2256 14 14.2194 14C14.2132 14 14.207 14 14.2008 14C14.1946 14 14.1884 14 14.1822 14C14.1759 14 14.1697 14 14.1634 14C14.1572 14 14.1509 14 14.1446 14C14.1384 14 14.1321 14 14.1258 14C14.1195 14 14.1132 14 14.1069 14C14.1006 14 14.0943 14 14.0879 14C14.0816 14 14.0752 14 14.0689 14C14.0625 14 14.0562 14 14.0498 14C14.0434 14 14.0371 14 14.0307 14C14.0243 14 14.0179 14 14.0115 14C14.0051 14 13.9986 14 13.9922 14C13.9858 14 13.9793 14 13.9729 14C13.9665 14 13.96 14 13.9535 14C13.9471 14 13.9406 14 13.9341 14C13.9276 14 13.9211 14 13.9146 14C13.9081 14 13.9016 14 13.8951 14C13.8886 14 13.882 14 13.8755 14C13.869 14 13.8624 14 13.8559 14C13.8493 14 13.8428 14 13.8362 14C13.8296 14 13.823 14 13.8164 14C13.8098 14 13.8032 14 13.7966 14C13.79 14 13.7834 14 13.7768 14C13.7702 14 13.7635 14 13.7569 14C13.7502 14 13.7436 14 13.7369 14C13.7303 14 13.7236 14 13.7169 14C13.7103 14 13.7036 14 13.6969 14C13.6902 14 13.6835 14 13.6768 14C13.6701 14 13.6634 14 13.6566 14C13.6499 14 13.6432 14 13.6365 14C13.6297 14 13.623 14 13.6162 14C13.6095 14 13.6027 14 13.5959 14C13.5892 14 13.5824 14 13.5756 14C13.5688 14 13.562 14 13.5552 14C13.5484 14 13.5416 14 13.5348 14C13.528 14 13.5211 14 13.5143 14C13.5075 14 13.5006 14 13.4938 14C13.4869 14 13.4801 14 13.4732 14C13.4664 14 13.4595 14 13.4526 14C13.4458 14 13.4389 14 13.432 14C13.4251 14 13.4182 14 13.4113 14C13.4044 14 13.3975 14 13.3906 14C13.3836 14 13.3767 14 13.3698 14C13.3629 14 13.3559 14 13.349 14C13.342 14 13.3351 14 13.3281 14C13.3212 14 13.3142 14 13.3072 14C13.3003 14 13.2933 14 13.2863 14C13.2793 14 13.2723 14 13.2653 14C13.2583 14 13.2513 14 13.2443 14C13.2373 14 13.2303 14 13.2233 14C13.2162 14 13.2092 14 13.2022 14C13.1951 14 13.1881 14 13.1811 14C13.174 14 13.167 14 13.1599 14C13.1528 14 13.1458 14 13.1387 14C13.1316 14 13.1245 14 13.1175 14C13.1104 14 13.1033 14 13.0962 14C13.0891 14 13.082 14 13.0749 14C13.0678 14 13.0607 14 13.0536 14C13.0464 14 13.0393 14 13.0322 14C13.0251 14 13.0179 14 13.0108 14C13.0036 14 12.9965 14 12.9893 14C12.9822 14 12.975 14 12.9679 14C12.9607 14 12.9536 14 12.9464 14C12.9392 14 12.932 14 12.9249 14C12.9177 14 12.9105 14 12.9033 14C12.8961 14 12.8889 14 12.8817 14C12.8745 14 12.8673 14 12.8601 14C12.8529 14 12.8456 14 12.8384 14C12.8312 14 12.824 14 12.8167 14C12.8095 14 12.8023 14 12.795 14C12.7878 14 12.7806 14 12.7733 14C12.7661 14 12.7588 14 12.7515 14C12.7443 14 12.737 14 12.7298 14C12.7225 14 12.7152 14 12.7079 14C12.7007 14 12.6934 14 12.6861 14C12.6788 14 12.6715 14 12.6642 14C12.6569 14 12.6496 14 12.6423 14C12.635 14 12.6277 14 12.6204 14C12.6131 14 12.6058 14 12.5985 14C12.5912 14 12.5838 14 12.5765 14C12.5692 14 12.5619 14 12.5545 14C12.5472 14 12.5399 14 12.5325 14C12.5252 14 12.5178 14 12.5105 14C12.5031 14 12.4958 14 12.4884 14C12.4811 14 12.4737 14 12.4664 14C12.459 14 12.4516 14 12.4443 14C12.4369 14 12.4295 14 12.4222 14C12.4148 14 12.4074 14 12.4 14C12.3926 14 12.3853 14 12.3779 14C12.3705 14 12.3631 14 12.3557 14C12.3483 14 12.3409 14 12.3335 14C12.3261 14 12.3187 14 12.3113 14C12.3039 14 12.2965 14 12.2891 14C12.2817 14 12.2743 14 12.2669 14C12.2594 14 12.252 14 12.2446 14C12.2372 14 12.2298 14 12.2223 14C12.2149 14 12.2075 14 12.2 14C12.1926 14 12.1852 14 12.1777 14C12.1703 14 12.1629 14 12.1554 14C12.148 14 12.1406 14 12.1331 14C12.1257 14 12.1182 14 12.1108 14C12.1033 14 12.0959 14 12.0884 14C12.081 14 12.0735 14 12.0661 14C12.0586 14 12.0511 14 12.0437 14C12.0362 14 12.0288 14 12.0213 14C12.0138 14 12.0064 14 11.9989 14C11.9914 14 11.984 14 11.9765 14C11.969 14 11.9615 14 11.9541 14C11.9466 14 11.9391 14 11.9316 14C11.9242 14 11.9167 14 11.9092 14C11.9017 14 11.8942 14 11.8868 14C11.8793 14 11.8718 14 11.8643 14C11.8568 14 11.8493 14 11.8419 14C11.8344 14 11.8269 14 11.8194 14C11.8119 14 11.8044 14 11.7969 14C11.7894 14 11.7819 14 11.7744 14C11.767 14 11.7595 14 11.752 14C11.7445 14 11.737 14 11.7295 14C11.722 14 11.7145 14 11.707 14C11.6995 14 11.692 14 11.6845 14C11.677 14 11.6695 14 11.662 14C11.6545 14 11.647 14 11.6395 14C11.632 14 11.6245 14 11.617 14C11.6095 14 11.602 14 11.5945 14C11.587 14 11.5795 14 11.572 14C11.5645 14 11.557 14 11.5495 14C11.542 14 11.5345 14 11.527 14C11.5195 14 11.512 14 11.5045 14C11.497 14 11.4895 14 11.482 14C11.4745 14 11.467 14 11.4595 14C11.452 14 11.4445 14 11.437 14C11.4295 14 11.422 14 11.4145 14C11.407 14 11.3995 14 11.392 14C11.3845 14 11.377 14 11.3695 14C11.362 14 11.3545 14 11.347 14C11.3395 14 11.332 14 11.3245 14C11.317 14 11.3095 14 11.302 14C11.2945 14 11.287 14 11.2795 14C11.2721 14 11.2646 14 11.2571 14C11.2496 14 11.2421 14 11.2346 14C11.2271 14 11.2196 14 11.2122 14C11.2047 14 11.1972 14 11.1897 14C11.1822 14 11.1747 14 11.1673 14C11.1598 14 11.1523 14 11.1448 14C11.1374 14 11.1299 14 11.1224 14C11.1149 14 11.1075 14 11.1 14C11.0925 14 11.0851 14 11.0776 14C11.0701 14 11.0627 14 11.0552 14C11.0477 14 11.0403 14 11.0328 14C11.0253 14 11.0179 14 11.0104 14C11.003 14 10.9955 14 10.9881 14C10.9806 14 10.9732 14 10.9657 14C10.9583 14 10.9508 14 10.9434 14C10.9359 14 10.9285 14 10.921 14C10.9136 14 10.9062 14 10.8987 14C10.8913 14 10.8839 14 10.8764 14C10.869 14 10.8616 14 10.8542 14C10.8467 14 10.8393 14 10.8319 14C10.8245 14 10.8171 14 10.8096 14C10.8022 14 10.7948 14 10.7874 14C10.78 14 10.7726 14 10.7652 14C10.7578 14 10.7504 14 10.743 14C10.7356 14 10.7282 14 10.7208 14C10.7134 14 10.706 14 10.6986 14C10.6912 14 10.6839 14 10.6765 14C10.6691 14 10.6617 14 10.6543 14C10.647 14 10.6396 14 10.6322 14C10.6249 14 10.6175 14 10.6101 14C10.6028 14 10.5954 14 10.5881 14C10.5807 14 10.5734 14 10.566 14C10.5587 14 10.5513 14 10.544 14C10.5367 14 10.5293 14 10.522 14C10.5147 14 10.5073 14 10.5 14C10.4927 14 10.4854 14 10.478 14C10.4707 14 10.4634 14 10.4561 14C10.4488 14 10.4415 14 10.4342 14C10.4269 14 10.4196 14 10.4123 14C10.405 14 10.3977 14 10.3904 14C10.3831 14 10.3759 14 10.3686 14C10.3613 14 10.354 14 10.3468 14C10.3395 14 10.3323 14 10.325 14C10.3177 14 10.3105 14 10.3032 14C10.296 14 10.2887 14 10.2815 14C10.2743 14 10.267 14 10.2598 14C10.2526 14 10.2453 14 10.2381 14C10.2309 14 10.2237 14 10.2165 14C10.2093 14 10.2021 14 10.1949 14C10.1876 14 10.1805 14 10.1733 14C10.1661 14 10.1589 14 10.1517 14C10.1445 14 10.1373 14 10.1302 14C10.123 14 10.1158 14 10.1087 14C10.1015 14 10.0944 14 10.0872 14C10.0801 14 10.0729 14 10.0658 14C10.0586 14 10.0515 14 10.0444 14C10.0373 14 10.0301 14 10.023 14C10.0159 14 10.0088 14 10.0017 14C9.99457 14 9.98747 14 9.98038 14C9.97329 14 9.9662 14 9.95912 14C9.95203 14 9.94496 14 9.93789 14C9.93082 14 9.92375 14 9.91669 14C9.90964 14 9.90258 14 9.89554 14C9.88849 14 9.88145 14 9.87442 14C9.86738 14 9.86035 14 9.85333 14C9.84631 14 9.8393 14 9.83229 14C9.82528 14 9.81828 14 9.81128 14C9.80428 14 9.79729 14 9.79031 14C9.78333 14 9.77635 14 9.76938 14C9.76241 14 9.75545 14 9.74849 14C9.74153 14 9.73458 14 9.72764 14C9.7207 14 9.71376 14 9.70683 14C9.6999 14 9.69298 14 9.68606 14C9.67915 14 9.67224 14 9.66533 14C9.65843 14 9.65154 14 9.64465 14C9.63776 14 9.63088 14 9.62401 14C9.61713 14 9.61027 14 9.60341 14C9.59655 14 9.5897 14 9.58285 14C9.57601 14 9.56917 14 9.56234 14C9.55551 14 9.54869 14 9.54187 14C9.53506 14 9.52825 14 9.52145 14C9.51465 14 9.50786 14 9.50107 14C9.49429 14 9.48751 14 9.48074 14C9.47397 14 9.46721 14 9.46046 14C9.45371 14 9.44696 14 9.44022 14C9.43348 14 9.42675 14 9.42003 14C9.41331 14 9.4066 14 9.39989 14C9.39318 14 9.38649 14 9.3798 14C9.37311 14 9.36643 14 9.35975 14C9.35308 14 9.34641 14 9.33976 14C9.3331 14 9.32645 14 9.31981 14C9.31317 14 9.30654 14 9.29992 14C9.2933 14 9.28668 14 9.28007 14C9.27347 14 9.26687 14 9.26028 14C9.25369 14 9.24711 14 9.24054 14C9.23397 14 9.22741 14 9.22085 14C9.2143 14 9.20776 14 9.20122 14C9.19468 14 9.18816 14 9.18164 14C9.17512 14 9.16861 14 9.16211 14C9.15561 14 9.14912 14 9.14264 14C9.13615 14 9.12968 14 9.12322 14C9.11675 14 9.1103 14 9.10385 14C9.09741 14 9.09097 14 9.08455 14C9.07812 14 9.0717 14 9.0653 14C9.05889 14 9.05249 14 9.0461 14C9.03971 14 9.03333 14 9.02696 14C9.02059 14 9.01424 14 9.00788 14C9.00153 14 8.99519 14 8.98886 14C8.98253 14 8.97621 14 8.9699 14C8.96359 14 8.95729 14 8.951 14C8.94471 14 8.93843 14 8.93216 14C8.92589 14 8.91962 14 8.91337 14C8.90712 14 8.90088 14 8.89465 14C8.88842 14 8.8822 14 8.87599 14C8.86978 14 8.86358 14 8.85739 14C8.8512 14 8.84502 14 8.83885 14C8.83269 14 8.82653 14 8.82038 14C8.81423 14 8.8081 14 8.80197 14C8.79584 14 8.78973 14 8.78362 14C8.77752 14 8.77142 14 8.76534 14C8.75926 14 8.75318 14 8.74712 14C8.74106 14 8.73501 14 8.72897 14C8.72293 14 8.7169 14 8.71088 14C8.70486 14 8.69885 14 8.69286 14C8.68686 14 8.68088 14 8.6749 14C8.66893 14 8.66297 14 8.65702 14C8.65107 14 8.64513 14 8.6392 14C8.63327 14 8.62735 14 8.62145 14C8.61554 14 8.60964 14 8.60376 14C8.59788 14 8.59201 14 8.58615 14C8.58029 14 8.57444 14 8.5686 14C8.56277 14 8.55694 14 8.55113 14C8.54532 14 8.53951 14 8.53373 14C8.52794 14 8.52216 14 8.51639 14C8.51063 14 8.50487 14 8.49913 14C8.49339 14 8.48766 14 8.48194 14C8.47623 14 8.47052 14 8.46483 14C8.45913 14 8.45345 14 8.44778 14C8.44211 14 8.43646 14 8.43081 14C8.42517 14 8.41954 14 8.41392 14C8.4083 14 8.40269 14 8.3971 14C8.3915 14 8.38592 14 8.38035 14C8.37478 14 8.36922 14 8.36368 14C8.35813 14 8.3526 14 8.34708 14C8.34156 14 8.33606 14 8.33057 14C8.32507 14 8.31959 14 8.31412 14C8.30866 14 8.3032 14 8.29776 14C8.29232 14 8.28689 14 8.28147 14C8.27606 14 8.27066 14 8.26527 14C8.25988 14 8.2545 14 8.24914 14C8.24378 14 8.23843 14 8.23309 14C8.22775 14 8.22243 14 8.21712 14C8.21181 14 8.20651 14 8.20123 14C8.19595 14 8.19068 14 8.18542 14C8.18017 14 8.17493 14 8.1697 14C8.16447 14 8.15925 14 8.15405 14C8.14885 14 8.14366 14 8.13849 14C8.13332 14 8.12816 14 8.12301 14C8.11786 14 8.11273 14 8.10761 14C8.1025 14 8.09739 14 8.0923 14C8.08721 14 8.08214 14 8.07708 14C8.07201 14 8.06697 14 8.06193 14C8.0569 14 8.05188 14 8.04688 14C8.04187 14 8.03688 14 8.0319 14C8.02693 14 8.02197 14 8.01702 14C8.01207 14 8.00714 14 8.00222 14C7.9973 14 7.9924 14 7.98751 14C7.98262 14 7.97774 14 7.97288 14C7.96803 14 7.96318 14 7.95835 14C7.95352 14 7.9487 14 7.9439 14C7.9391 14 7.93432 14 7.92955 14C7.92478 14 7.92002 14 7.91528 14C7.91054 14 7.90581 14 7.9011 14C7.89639 14 7.8917 14 7.88702 14C7.88234 14 7.87767 14 7.87302 14C7.86837 14 7.86374 14 7.85912 14C7.8545 14 7.84989 14 7.84531 14C7.84072 14 7.83615 14 7.83159 14C7.82703 14 7.82249 14 7.81796 14C7.81344 14 7.80893 14 7.80443 14C7.79994 14 7.79546 14 7.79099 14C7.78653 14 7.78208 14 7.77765 14C7.77322 14 7.7688 14 7.7644 14C7.76 14 7.75562 14 7.75125 14C7.74688 14 7.74253 14 7.7382 14C7.73386 14 7.72954 14 7.72524 14C7.72093 14 7.71665 14 7.71238 14C7.7081 14 7.70385 14 7.69961 14C7.69537 14 7.69115 14 7.68695 14C7.68274 14 7.67855 14 7.67438 14C7.67021 14 7.66605 14 7.66191 14C7.65777 14 7.65365 14 7.64954 14C7.64543 14 7.64134 14 7.63727 14C7.6332 14 7.62914 14 7.6251 14C7.62106 14 7.61704 14 7.61304 14C7.60903 14 7.60504 14 7.60107 14C7.5971 14 7.59315 14 7.58921 14C7.58527 14 7.58135 14 7.57745 14C7.57354 14 7.56966 14 7.56579 14C7.56192 14 7.55807 14 7.55424 14C7.5504 14 7.54658 14 7.54279 14C7.53899 14 7.5352 14 7.53144 14C7.52768 14 7.52393 14 7.5202 14C7.51647 14 7.51276 14 7.50906 14C7.50537 14 7.50169 14 7.49803 14C7.49438 14 7.49073 14 7.48711 14C7.48349 14 7.47988 14 7.4763 14C7.47271 14 7.46914 14 7.46559 14C7.46204 14 7.4585 14 7.45499 14C7.45147 14 7.44797 14 7.4445 14C7.44102 14 7.43756 14 7.43411 14C7.43067 14 7.42725 14 7.42384 14C7.42043 14 7.41704 14 7.41368 14C7.41031 14 7.40695 14 7.40362 14C7.40029 14 7.39698 14 7.39368 14C7.39038 14 7.38711 14 7.38385 14C7.38059 14 7.37735 14 7.37413 14C7.37091 14 7.36771 14 7.36452 14C7.36134 14 7.35818 14 7.35503 14C7.35188 14 7.34876 14 7.34565 14C7.34254 14 7.33945 14 7.33638 14C7.33331 14 7.33026 14 7.32723 14C7.3242 14 7.32119 14 7.31819 14C7.3152 14 7.31223 14 7.30927 14C7.30632 14 7.30338 14 7.30047 14C7.29755 14 7.29465 14 7.29178 14C7.2889 14 7.28604 14 7.2832 14C7.28036 14 7.27755 14 7.27475 14C7.27195 14 7.26917 14 7.26641 14C7.26365 14 7.26091 14 7.25819 14C7.25547 14 7.25277 14 7.25009 14C7.24741 14 7.24475 14 7.24211 14C7.23947 14 7.23685 14 7.23425 14C7.23165 14 7.22906 14 7.2265 14C7.22394 14 7.2214 14 7.21888 14C7.21636 14 7.21386 14 7.21138 14C7.2089 14 7.20645 14 7.20401 14C7.20157 14 7.19915 14 7.19675 14C7.19435 14 7.19197 14 7.18962 14C7.18726 14 7.18492 14 7.18261 14C7.18029 14 7.178 14 7.17572 14C7.17345 14 7.17119 14 7.16896 14C7.16673 14 7.16451 14 7.16232 14C7.16013 14 7.15796 14 7.15581 14C7.15366 14 7.15153 14 7.14942 14C7.14732 14 7.14523 14 7.14316 14C7.1411 14 7.13905 14 7.13703 14C7.13501 14 7.13301 14 7.13102 14C7.12904 14 7.12708 14 7.12515 14C7.12321 14 7.12129 14 7.1194 14C7.1175 14 7.11563 14 7.11377 14C7.11192 14 7.11009 14 7.10828 14C7.10647 14 7.10468 14 7.10292 14C7.10115 14 7.09941 14 7.09768 14C7.09596 14 7.09426 14 7.09258 14C7.0909 14 7.08924 14 7.08761 14C7.08597 14 7.08436 14 7.08277 14C7.08118 14 7.07961 14 7.07806 14C7.07651 14 7.07499 14 7.07349 14C7.07198 14 7.0705 14 7.06904 14C7.06759 14 7.06615 14 7.06474 14C7.06332 14 7.06193 14 7.06056 14C7.05919 14 7.05784 14 7.05652 14C7.0552 14 7.05389 14 7.05261 14C7.05134 14 7.05008 14 7.04884 14C7.04761 14 7.0464 14 7.04521 14C7.04402 14 7.04286 14 7.04171 14C7.04057 14 7.03945 14 7.03835 14C7.03726 14 7.03618 14 7.03513 14C7.03408 14 7.03305 14 7.03205 14C7.03104 14 7.03006 14 7.0291 14C7.02814 14 7.0272 14 7.02629 14C7.02538 14 7.02449 14 7.02362 14C7.02276 14 7.02191 14 7.0211 14C7.02028 14 7.01948 14 7.01871 14C7.01793 14 7.01719 14 7.01646 14C7.01573 14 7.01503 14 7.01435 14C7.01368 14 7.01302 14 7.01239 14C7.01176 14 7.01115 14 7.01057 14C7.00999 14 7.00943 14 7.00889 14C7.00836 14 7.00784 14 7.00736 14C7.00687 14 7.00641 14 7.00597 14C7.00553 14 7.00511 14 7.00472 14C7.00433 14 7.00396 14 7.00362 14C7.00327 14 7.00295 14 7.00266 14C7.00237 14 7.0021 14 7.00185 14C7.0016 14 7.00138 14 7.00118 14C7.00099 14 7.00082 14 7.00067 14C7.00052 14 7.0004 14 7.0003 14C7.0002 14 7.00012 14 7.00007 14C7.00002 14 7 14 7 15ZM15.5 16C16.5676 16 17.7737 15.8703 18.8711 15.2432C19.9984 14.5991 20.8862 13.5036 21.4487 11.8162L19.5513 11.1838C19.1138 12.4964 18.5016 13.1509 17.8789 13.5068C17.2263 13.8797 16.4324 14 15.5 14V16ZM21.4744 11.7249L22.9744 5.22486L21.0256 4.77514L19.5256 11.2751L21.4744 11.7249ZM3.10557 2.44721C3.30458 2.84523 3.50877 3.50547 3.67107 4.12748C3.749 4.42613 3.8122 4.69574 3.85588 4.89061C3.87767 4.98782 3.89448 5.06589 3.90572 5.11901C3.91133 5.14556 3.91554 5.16584 3.91828 5.17912C3.91965 5.18577 3.92065 5.19066 3.92127 5.1937C3.92158 5.19523 3.9218 5.19629 3.92192 5.19688C3.92198 5.19717 3.92201 5.19735 3.92202 5.19741C3.92203 5.19744 3.92203 5.19744 3.92202 5.19741C3.92202 5.19739 3.92201 5.19734 3.92201 5.19734C3.922 5.19728 3.92198 5.19722 4.90234 5C5.8827 4.80278 5.88269 4.8027 5.88267 4.80262C5.88266 4.80258 5.88264 4.80249 5.88263 4.80241C5.8826 4.80226 5.88256 4.80208 5.88252 4.80186C5.88243 4.80143 5.88232 4.80088 5.88218 4.80021C5.88191 4.79887 5.88154 4.79705 5.88108 4.79476C5.88015 4.79018 5.87882 4.78372 5.87712 4.77547C5.87372 4.75897 5.8688 4.7353 5.86244 4.70521C5.84972 4.64505 5.83119 4.55905 5.80745 4.45314C5.76007 4.24176 5.69143 3.94887 5.60627 3.62252C5.44241 2.99453 5.19542 2.15477 4.89443 1.55279L3.10557 2.44721ZM3.92364 5.2053L6.0213 15.2053L7.9787 14.7947L5.88104 4.7947L3.92364 5.2053ZM22 4H4.90234V6H22V4Z"
		fill="white"/>
	<circle cx="7" cy="21" r="2" stroke="white" stroke-width="2"/>
	<circle cx="19" cy="21" r="2" stroke="white" stroke-width="2"/>
</svg>
