<svg width="24" height="24" viewBox="0 0 24 24" fill="none" xmlns="http://www.w3.org/2000/svg">
	<path fill-rule="evenodd" clip-rule="evenodd"
		d="M1 10C1 14.9706 5.02944 19 10 19C12.125 19 14.078 18.2635 15.6177 17.0319L21.2929 22.7071C21.6834 23.0976 22.3166 23.0976 22.7071 22.7071C23.0976 22.3166 23.0976 21.6834 22.7071 21.2929L17.0319 15.6177C18.2635 14.078 19 12.125 19 10C19 5.02944 14.9706 1 10 1C5.02944 1 1 5.02944 1 10ZM17 10C17 13.866 13.866 17 10 17C6.13401 17 3 13.866 3 10C3 6.13401 6.13401 3 10 3C13.866 3 17 6.13401 17 10Z"
		fill="white"/>
</svg>
