<svg width="24" height="24" viewBox="0 0 24 24" fill="none" xmlns="http://www.w3.org/2000/svg">
	<path d="M3.70493 5.16858L6.05177 8.88488V23L17.5 23" stroke="black" stroke-width="1.5"/>
	<path d="M19.985 5.16858L17.6381 8.88488V23" stroke="black" stroke-width="1.5"/>
	<path
		d="M6.05177 14.9196L1.59106 11.6977L3.70493 5.16857C5.55171 3.89571 7.40418 2.61716 9.25665 1.3443L11.8422 4.81626L10.4443 6.21414C9.00663 4.69693 6.93823 3.28201 9.25665 1.3443"
		stroke="black" stroke-width="1.5"/>
	<path
		d="M17.6382 14.9196L22.0989 11.6977L19.9851 5.16857C18.1326 3.89571 16.2858 2.61716 14.4333 1.3443L11.8422 4.81626L13.24 6.21414C14.6834 4.69693 16.7518 3.28201 14.4333 1.3443"
		stroke="black" stroke-width="1.5"/>
	<path d="M13.9048 10.2885H15.9392" stroke="black" stroke-width="1.5"/>
	<path d="M14.4334 1.3443H9.25674" stroke="black" stroke-width="1.5"/>
</svg>
