<svg width="24" height="24" viewBox="0 0 24 24" fill="none" xmlns="http://www.w3.org/2000/svg">
	<path
		d="M12.38 23C18.2453 23 23 18.2453 23 12.38C23 6.51475 18.2453 1.76001 12.38 1.76001C6.51475 1.76001 1.76001 6.51475 1.76001 12.38C1.76001 18.2453 6.51475 23 12.38 23Z"
		stroke="black" stroke-width="1.5"/>
	<path
		d="M7.17066 14.0925C8.11641 14.0925 8.8831 13.3258 8.8831 12.38C8.8831 11.4343 8.11641 10.6676 7.17066 10.6676C6.22491 10.6676 5.45822 11.4343 5.45822 12.38C5.45822 13.3258 6.22491 14.0925 7.17066 14.0925Z"
		stroke="black" stroke-width="1.5"/>
	<path
		d="M12.3799 14.0925C13.3256 14.0925 14.0923 13.3258 14.0923 12.38C14.0923 11.4343 13.3256 10.6676 12.3799 10.6676C11.4341 10.6676 10.6674 11.4343 10.6674 12.38C10.6674 13.3258 11.4341 14.0925 12.3799 14.0925Z"
		stroke="black" stroke-width="1.5"/>
	<path
		d="M17.5747 14.0925C18.5205 14.0925 19.2872 13.3258 19.2872 12.38C19.2872 11.4343 18.5205 10.6676 17.5747 10.6676C16.629 10.6676 15.8623 11.4343 15.8623 12.38C15.8623 13.3258 16.629 14.0925 17.5747 14.0925Z"
		stroke="black" stroke-width="1.5"/>
</svg>
