<svg width="24" height="24" viewBox="0 0 24 24" fill="none" xmlns="http://www.w3.org/2000/svg">
	<path d="M14.2266 19.8276V23.0575H10.3407V19.8276" stroke="black" stroke-width="1.5"/>
	<path fill-rule="evenodd" clip-rule="evenodd"
		d="M7.27871 19.666C6.94043 20.0563 6.43735 20.2992 5.87355 20.2992C4.84136 20.2992 4 19.4665 4 18.4257C4 17.8619 4.26022 17.3501 4.65921 17.0032C5.95162 15.7454 6.75828 13.976 6.75828 12.0244C6.75828 9.99469 5.88222 8.16451 4.50308 6.88945C4.19082 6.55117 4 6.1088 4 5.6144C4 4.58221 4.84136 3.74084 5.87355 3.74084C6.35061 3.74084 6.79298 3.923 7.12258 4.21791C8.39764 5.62307 10.2365 6.5078 12.2835 6.5078C14.3305 6.5078 16.1694 5.6144 17.4445 4.21791C17.7741 3.923 18.2164 3.74084 18.6935 3.74084C19.7257 3.74084 20.5584 4.58221 20.5584 5.6144C20.5584 6.1088 20.3675 6.55984 20.0466 6.89812C18.6675 8.17318 17.8088 9.99469 17.8088 12.0244C17.8088 14.0454 18.6675 15.8669 20.0466 17.1419C20.3675 17.4802 20.5584 17.9313 20.5584 18.4257C20.5584 19.4665 19.7257 20.2992 18.6935 20.2992C18.1817 20.2992 17.722 20.0997 17.3837 19.7701C16.1174 18.3996 14.2959 17.5496 12.2835 17.5496C10.3232 17.5496 8.54509 18.3563 7.27871 19.666Z"
		stroke="black" stroke-width="1.5"/>
	<path d="M10.3407 4.22123V1H14.2266V4.22123" stroke="black" stroke-width="1.5"/>
	<path
		d="M14.0695 9.11749H10.3923C9.92717 9.11749 9.55009 9.49457 9.55009 9.95972V13.6369C9.55009 14.102 9.92717 14.4791 10.3923 14.4791H14.0695C14.5346 14.4791 14.9117 14.102 14.9117 13.6369V9.95972C14.9117 9.49457 14.5346 9.11749 14.0695 9.11749Z"
		stroke="black" stroke-width="1.5"/>
	<path d="M12.2835 9.14478V15.069" stroke="black" stroke-width="1.5"/>
</svg>
