<svg width="24" height="24" viewBox="0 0 24 24" fill="none" xmlns="http://www.w3.org/2000/svg">
	<g clip-path="url(#clip0_15_1)">
		<path d="M8.15869 3.5V1H15.1587V3.5" stroke="black" stroke-width="1.5"/>
		<path
			d="M19.9819 23.25L19.1867 12.1791L19.1634 11.8537L19.3854 11.6148L23.2135 7.49492H19.3541H18.7562L18.623 6.91201C18.4543 6.17394 18.0679 5.50245 17.503 4.98101L19.9819 23.25ZM19.9819 23.25H3.09423L4.36944 7.45261L4.36946 7.45246C4.44587 6.50352 4.87259 5.6269 5.57281 4.98115L5.57297 4.98101C6.27271 4.33534 7.18108 3.98047 8.13336 3.98047H14.9426C15.8949 3.98047 16.8032 4.33531 17.5029 4.98093L19.9819 23.25ZM23.3192 7.52327C23.3165 7.52112 23.3111 7.51685 23.3037 7.51058C23.306 7.51248 23.308 7.51421 23.3099 7.51577L23.3192 7.52327Z"
			stroke="black" stroke-width="1.5"/>
		<path
			d="M14.1587 10.1371V16.8629C14.1587 18.0413 13.0376 19 11.6589 19C10.2803 19 9.15869 18.0413 9.15869 16.8629V10.1371C9.15869 8.95872 10.2803 8 11.6589 8C13.0376 8 14.1587 8.95872 14.1587 10.1371Z"
			stroke="black" stroke-width="1.5"/>
		<path d="M3.76845 8.11723L3.11469 8.06963C2.28845 8.00947 1.56988 8.63049 1.50972 9.45673L0.999889 16.4583"
			stroke="black" stroke-width="1.5"/>
	</g>
	<defs>
		<clipPath id="clip0_15_1">
			<rect width="24" height="24" fill="white"/>
		</clipPath>
	</defs>
</svg>
