<svg width="24" height="24" viewBox="0 0 24 24" fill="none" xmlns="http://www.w3.org/2000/svg">
	<path
		d="M19.963 7.67834L20.0315 7.73629L20.1118 7.77643C20.1533 7.7972 20.1882 7.82911 20.2126 7.8686C20.237 7.90808 20.25 7.95358 20.25 8C20.25 8.00001 20.25 8.00002 20.25 8.00003V23C20.25 23.0663 20.2236 23.1299 20.1767 23.1768C20.1299 23.2237 20.0663 23.25 20 23.25H12C11.9337 23.25 11.8701 23.2237 11.8232 23.1768C11.7763 23.1299 11.75 23.0663 11.75 23V8.00003C11.75 8.00002 11.75 8.00001 11.75 8C11.75 7.95358 11.7629 7.90809 11.7873 7.8686C11.8117 7.82911 11.8466 7.7972 11.8882 7.77643L11.9684 7.73629L12.037 7.67834L13.1349 6.75H18.865L19.963 7.67834Z"
		stroke="black" stroke-width="1.5"/>
	<path
		d="M3.33333 14.75H8.66667C8.88033 14.75 9.05604 14.8153 9.15948 14.8929C9.20871 14.9298 9.23209 14.962 9.24198 14.9799C9.24689 14.9888 9.24876 14.9946 9.24944 14.9971L9.24996 14.9996L9.25 14.9999L9.25 15V21C9.25 21.5157 8.97783 22.0718 8.37843 22.5213C7.77489 22.974 6.92091 23.25 6 23.25C5.07909 23.25 4.22511 22.974 3.62157 22.5213L3.18255 23.1067L3.62157 22.5213C3.02217 22.0718 2.75 21.5157 2.75 21V15L2.75 14.9999L2.75004 14.9996L2.75056 14.9971C2.75124 14.9946 2.75311 14.9888 2.75802 14.9799C2.76791 14.962 2.79129 14.9298 2.84052 14.8929C2.94396 14.8153 3.11967 14.75 3.33333 14.75Z"
		stroke="black" stroke-width="1.5"/>
	<path d="M6 14V8" stroke="black" stroke-width="1.5"/>
	<path
		d="M8.25 4.5C8.25 6.10667 7.92725 7.03976 7.52768 7.55727C7.15385 8.04143 6.64421 8.25 6 8.25C5.15238 8.25 4.64575 7.89762 4.30626 7.30782C3.93352 6.66029 3.75 5.69021 3.75 4.5C3.75 2.89333 4.07275 1.96024 4.47232 1.44273C4.84615 0.958566 5.35579 0.75 6 0.75C6.84762 0.75 7.35425 1.10238 7.69374 1.69218C8.06648 2.33971 8.25 3.30979 8.25 4.5Z"
		stroke="black" stroke-width="1.5"/>
	<mask id="path-5-inside-1_12_394" fill="white">
		<path d="M13 1C13 0.447715 13.4477 0 14 0H18C18.5523 0 19 0.447715 19 1V5H13V1Z"/>
	</mask>
	<path d="M13 1C13 0.447715 13.4477 0 14 0H18C18.5523 0 19 0.447715 19 1V5H13V1Z" stroke="black" stroke-width="3"
		mask="url(#path-5-inside-1_12_394)"/>
</svg>
