<svg width="24" height="24" viewBox="0 0 24 24" fill="none" xmlns="http://www.w3.org/2000/svg">
	<rect x="6.76913" y="4.61536" width="12.9231" height="14.7692" rx="4" stroke="black" stroke-width="1.5"/>
	<path
		d="M8.6153 5.53848V2.92309C8.6153 1.81853 9.51073 0.923096 10.6153 0.923096H15.8461C16.9506 0.923096 17.8461 1.81853 17.8461 2.9231V5.53848"
		stroke="black" stroke-width="1.5"/>
	<path
		d="M17.8461 18.4615V21.0769C17.8461 22.1815 16.9506 23.0769 15.8461 23.0769H10.6153C9.51073 23.0769 8.6153 22.1815 8.6153 21.0769V18.9231"
		stroke="black" stroke-width="1.5"/>
	<path
		d="M3.99991 12C3.99991 10.9804 4.82646 10.1538 5.84606 10.1538H6.76914V13.8461H5.84606C4.82646 13.8461 3.99991 13.0196 3.99991 12V12Z"
		stroke="black" stroke-width="1.5"/>
	<path
		d="M8.6153 12.0001H9.53837L11.3845 9.23083L12.3076 13.8462L14.1538 11.077L15.0768 12.9231L15.9999 12.0001H17.8461"
		stroke="black" stroke-width="1.5"/>
</svg>
