<svg width="24" height="24" viewBox="0 0 24 24" fill="none" xmlns="http://www.w3.org/2000/svg">
	<path
		d="M1.9727 15.4113L3.15152 14.2202L6.03179 15.0071L6.45186 15.1218L6.75977 14.8139L10.7916 10.7821L11.4983 10.0754L10.6223 9.59434L2.99737 5.40661L4.64557 3.75841L14.866 6.20209L15.274 6.29966L15.5707 6.00298L18.0614 3.51226C18.7731 2.80061 19.5668 2.3052 20.4458 2.0122C21.2698 1.73754 21.7171 1.83147 21.9787 2.02131C22.1686 2.28288 22.2625 2.73026 21.9878 3.55424C21.6948 4.43324 21.1994 5.22696 20.4878 5.93861L17.9815 8.4449L17.6878 8.73854L17.7809 9.14326L20.2356 19.8212L18.6129 21.0382L14.4057 13.3777L13.9246 12.5018L13.218 13.2084L9.18612 17.2403L8.87821 17.5482L8.99297 17.9682L9.78009 20.8494L8.59449 22.035L5.81759 18.3325L5.7533 18.2467L5.66759 18.1825L1.9727 15.4113Z"
		stroke="black" stroke-width="1.5"/>
</svg>
