<svg width="24" height="24" viewBox="0 0 24 24" fill="none" xmlns="http://www.w3.org/2000/svg">
	<path fill-rule="evenodd" clip-rule="evenodd"
		d="M22.9128 13.9197C19.6918 8.0402 13.2149 5.89158 6.92439 6.29445C6.55162 6.00251 6.06235 5.64636 5.47408 5.27852C5.4333 5.25517 5.37506 5.26685 5.34594 5.31355C5.04306 5.79816 4.30917 6.9075 4.13443 7.18192C4.11113 7.22279 4.12278 7.28118 4.16355 7.31037L5.14208 7.97598L2.55015 13.0556C2.41619 13.3067 2.44531 13.6103 2.62587 13.8321L4.41401 16.0099C4.54797 16.1734 4.74601 16.2668 4.95569 16.2668H22.3012C22.6856 16.2668 23.0001 15.9516 23.0001 15.5662V14.2584C23.0001 14.1357 22.971 14.019 22.9128 13.9197ZM12.3412 11.9754V11.5259C12.3412 11.3916 12.2305 11.2806 12.0908 11.2806H8.91638C8.78242 11.2806 8.67175 11.3916 8.67175 11.5259V11.9754H5.742L7.55344 8.61823C7.81554 8.60655 8.07182 8.60655 8.3281 8.60655C13.9721 8.60655 17.7114 11.9754 17.7114 11.9754H12.3412Z"
		stroke="black" stroke-width="1.5"/>
	<path d="M5.4 6.00011C4.01493 5.31816 2.55224 4.82304 1 4.53345" stroke="black" stroke-width="1.5"/>
	<path d="M4.66699 19.4668H22.267" stroke="black" stroke-width="1.5"/>
	<path d="M5.40039 14.0669H8.33372" stroke="black" stroke-width="1.5"/>
</svg>
