<svg width="24" height="24" viewBox="0 0 24 24" fill="none" xmlns="http://www.w3.org/2000/svg">
	<path fill-rule="evenodd" clip-rule="evenodd"
		d="M11.68 3C16.3 3 20.08 6.78 20.08 11.39V16.81C20.08 20.49 15.72 22.04 11.45 21.97C7.33 21.91 3.28 20.36 3.28 16.82V11.39C3.28 6.78 7.06 3 11.68 3Z"
		stroke="black" stroke-width="1.5"/>
	<path
		d="M3.28 16.5C3.25 16.51 3.21 16.51 3.17 16.51C1.98 16.51 1 15.53 1 14.34C1 13.14 1.98 12.17 3.17 12.17C3.21 12.17 3.25 12.17 3.28 12.17"
		stroke="black" stroke-width="1.5"/>
	<path d="M20.05 12.17C21.24 12.17 22.22 13.14 22.22 14.34C22.22 15.53 21.24 16.51 20.05 16.51" stroke="black"
		stroke-width="1.5"/>
	<path
		d="M9.56 3.27002C11.42 3.36002 13.68 5.02002 13.68 6.99002C13.68 8.18002 12.71 9.16002 11.51 9.16002C10.5 9.16002 9.59 8.47002 9.59 7.41002C9.59 6.47002 10.35 5.71002 11.29 5.71002C11.33 5.71002 11.37 5.71002 11.42 5.71002"
		stroke="black" stroke-width="1.5"/>
	<path d="M9.45996 16.12C10.88 17.35 12.31 17.37 13.73 16.12" stroke="black" stroke-width="1.5"/>
	<path
		d="M7.48239 14C7.7488 14 7.96478 13.7761 7.96478 13.5C7.96478 13.2239 7.7488 13 7.48239 13C7.21597 13 7 13.2239 7 13.5C7 13.7761 7.21597 14 7.48239 14Z"
		stroke="black" stroke-width="1.5"/>
	<path
		d="M16.3776 14C16.644 14 16.86 13.7761 16.86 13.5C16.86 13.2239 16.644 13 16.3776 13C16.1112 13 15.8952 13.2239 15.8952 13.5C15.8952 13.7761 16.1112 14 16.3776 14Z"
		stroke="black" stroke-width="1.5"/>
</svg>
