<svg width="24" height="24" viewBox="0 0 24 24" fill="none" xmlns="http://www.w3.org/2000/svg">
	<path fill-rule="evenodd" clip-rule="evenodd"
		d="M17.0386 14.265L19.3029 21.2946C19.3029 21.2946 20.6115 24.2484 17.9463 22.3403C15.5046 20.5919 12.0151 17.9518 12.0151 17.9518C12.0151 17.9518 8.35601 20.6498 5.93687 22.4314C3.50303 24.2248 4.7469 21.2025 4.7469 21.2025L6.99941 14.2562L0.881966 9.78539C0.881966 9.78539 -1.33525 8.27716 1.2613 8.27716C4.24994 8.27716 8.92159 8.27912 8.92159 8.27912L11.3623 0.653666C11.3623 0.653666 11.5525 0 12.0328 0C12.5434 0 12.714 0.701686 12.714 0.701686L15.1263 8.285C15.1263 8.285 19.7509 8.27716 22.7415 8.27716C25.1988 8.27716 23.3002 9.68641 23.3002 9.68641L17.0386 14.265Z"
		fill="url(#paint0_linear_109_1112)"/>
	<defs>
		<linearGradient id="paint0_linear_109_1112" x1="12" y1="0" x2="12" y2="23" gradientUnits="userSpaceOnUse">
			<stop stop-color="#ED732A"/>
			<stop offset="1" stop-color="#F39A24"/>
		</linearGradient>
	</defs>
</svg>
