<svg width="24" height="24" viewBox="0 0 24 24" fill="none" xmlns="http://www.w3.org/2000/svg">
	<path fill-rule="evenodd" clip-rule="evenodd"
		d="M11.7506 4.53775C11.506 4.25742 11.2283 3.93905 11.0821 3.79289C9.93005 2.64083 8.50597 2 6.5 2C2.30159 2 0 4.95919 0 9C0 11.7194 1.54831 13.8411 4.598 16.3583C4.87131 16.5839 5.14974 16.8081 5.51399 17.0973C5.45355 17.0493 6.18729 17.6305 6.37531 17.7809L12 22.2806L17.6247 17.7809C17.7449 17.6847 17.8692 17.5859 18.0429 17.4483C18.2584 17.2777 18.3731 17.1869 18.4792 17.1027C18.8409 16.8156 19.1162 16.594 19.3868 16.371C22.4499 13.8457 24 11.7257 24 9C24 4.95919 21.6984 2 17.5 2C15.494 2 14.07 2.64083 12.9179 3.79289C12.7717 3.93905 12.494 4.25742 12.2494 4.53775C12.1589 4.6414 12.073 4.73984 12 4.82246C11.927 4.73984 11.8411 4.6414 11.7506 4.53775ZM16.3753 16.2191L12 19.7194L7.62469 16.2191C7.4322 16.0651 6.6935 15.4801 6.75762 15.531C6.40243 15.249 6.133 15.032 5.87113 14.8159C3.24733 12.6502 2 10.9409 2 9C2 5.96938 3.53174 4 6.5 4C7.95236 4 8.87677 4.41599 9.66789 5.20711C9.69713 5.23634 9.7784 5.32922 9.88909 5.45574C10.2202 5.83419 10.8147 6.51358 11.0672 6.69033C11.3467 6.88599 11.6558 7 12 7C12.3442 7 12.6533 6.88599 12.9328 6.69033C13.1853 6.51358 13.7798 5.83419 14.1109 5.45574C14.2216 5.32922 14.3029 5.23634 14.3321 5.20711C15.1232 4.41599 16.0476 4 17.5 4C20.4683 4 22 5.96938 22 9C22 10.9461 20.751 12.6542 18.1145 14.8278C17.8551 15.0416 17.5885 15.2562 17.2357 15.5363C17.1307 15.6196 17.0173 15.7094 16.8011 15.8805C16.6251 16.02 16.4986 16.1205 16.3753 16.2191Z"
		fill="#FFFFFF"/>
</svg>
