<svg width="24" height="24" viewBox="0 0 24 24" fill="none" xmlns="http://www.w3.org/2000/svg">
	<path fill-rule="evenodd" clip-rule="evenodd"
		d="M22 14.9971C22 13.1332 20.7252 11.5671 19 11.1231V1.99707C19 1.44479 18.5523 0.99707 18 0.99707C17.4477 0.99707 17 1.44479 17 1.99707V11.1231C15.2748 11.5671 14 13.1332 14 14.9971C14 16.8609 15.2748 18.427 17 18.8711V21.9971C17 22.5494 17.4477 22.9971 18 22.9971C18.5523 22.9971 19 22.5494 19 21.9971V18.8711C20.7252 18.427 22 16.8609 22 14.9971ZM10 9.00001C10 7.13617 8.72523 5.57007 7 5.12603V2.00001C7 1.44773 6.55228 1.00001 6 1.00001C5.44772 1.00001 5 1.44773 5 2.00001V5.12603C3.27477 5.57007 2 7.13617 2 9.00001C2 10.8638 3.27477 12.4299 5 12.874V22C5 22.5523 5.44772 23 6 23C6.55228 23 7 22.5523 7 22V12.874C8.72523 12.4299 10 10.8638 10 9.00001ZM18 16.9971C16.8954 16.9971 16 16.1016 16 14.9971C16 13.8925 16.8954 12.9971 18 12.9971C19.1046 12.9971 20 13.8925 20 14.9971C20 16.1016 19.1046 16.9971 18 16.9971ZM4 9.00001C4 10.1046 4.89543 11 6 11C7.10457 11 8 10.1046 8 9.00001C8 7.89544 7.10457 7.00001 6 7.00001C4.89543 7.00001 4 7.89544 4 9.00001Z"
		fill="white"/>
</svg>
