<svg width="24" height="24" viewBox="0 0 24 24" xmlns="http://www.w3.org/2000/svg">
	<path
		d="M4.99995 8.5C4.99995 7.69176 5.4126 7.00231 6.11618 6.46149C6.62685 3.18617 8.77584 1 12 1C15.2241 1 17.3731 3.18617 17.8837 6.46149C18.5873 7.00231 19 7.69176 19 8.5C19 9.4117 18.4802 10.1661 17.6096 10.7323C17.1359 12.2655 16.2452 13.4842 15 14.2216V14.7025C19.0286 15.2943 21.6357 17.1959 22.6518 20.3944C22.714 20.5903 22.7457 20.7945 22.7457 21C22.7457 22.1046 21.8503 23 20.7457 23H3.25421C3.04873 23 2.84448 22.9683 2.64864 22.9061C1.59591 22.5717 1.01362 21.4471 1.34809 20.3944C2.36426 17.1959 4.97128 15.2943 8.99995 14.7025V14.2216C7.75465 13.4842 6.86397 12.2655 6.3903 10.7323C5.51972 10.1661 4.99995 9.4117 4.99995 8.5Z"
		fill="#FFFFFF"/>
</svg>
