<svg width="25" height="24" viewBox="0 0 25 24" xmlns="http://www.w3.org/2000/svg">
	<path
		d="M7.16556 4L6.81658 2.37141C6.52017 0.9882 5.29778 0 3.88317 0H1.5C0.947715 0 0.5 0.447715 0.5 1C0.5 1.55228 0.947715 2 1.5 2H3.88317C4.35471 2 4.76217 2.3294 4.86097 2.79047L7.35281 14.4191C7.55041 15.3412 8.36534 16 9.30842 16H17.401C20.2611 16 22.7236 13.9812 23.2845 11.1767L24.4806 5.19612C24.6043 4.57732 24.131 4 23.5 4H7.16556ZM9 24C10.3807 24 11.5 22.8807 11.5 21.5C11.5 20.1193 10.3807 19 9 19C7.61929 19 6.5 20.1193 6.5 21.5C6.5 22.8807 7.61929 24 9 24ZM22.5 21.5C22.5 22.8807 21.3807 24 20 24C18.6193 24 17.5 22.8807 17.5 21.5C17.5 20.1193 18.6193 19 20 19C21.3807 19 22.5 20.1193 22.5 21.5Z"
		fill="#FFFFFF"/>
</svg>
